<?xml version="1.0" encoding="utf-8"?>
<!-- Generator: Adobe Illustrator 27.7.0, SVG Export Plug-In . SVG Version: 6.00 Build 0)  -->
<svg version="1.1" id="Layer_1" xmlns="http://www.w3.org/2000/svg" x="0px"
	 y="0px"
	 viewBox="0 0 1024 1024" style="enable-background:new 0 0 1024 1024;" xml:space="preserve">
<style type="text/css">
	.st0{fill:#E8EDE2;}
	.st1{fill:#E6EBE0;}
	.st2{fill:#A9E9E7;}
	.st3{fill:#FCD6A2;}
	.st4{fill:#23A9BD;}
	.st5{fill:#3DCBD5;}
	.st6{fill:#FBFCF0;}
	.st7{fill:#FAFBF0;}
	.st8{fill:#FBC37B;}
	.st9{fill:#FABF73;}
	.st10{fill:#F57D2A;}
	.st11{fill:#F57926;}
	.st12{fill:#F4DDB1;}
	.st13{fill:#61C5CE;}
	.st14{fill:#1090A8;}
	.st15{fill:#A6D8D9;}
	.st16{fill:#C7EEEC;}
	.st17{fill:#EBD3A8;}
	.st18{fill:#F1E6BB;}
	.st19{fill:#F8BB76;}
	.st20{fill:#6FDEE2;}
	.st21{fill:#FAD08B;}
	.st22{fill:#2DACBD;}
	.st23{fill:#F8EEDC;}
	.st24{fill:#F8D597;}
	.st25{fill:#4DA9A3;}
	.st26{fill:#38C2CF;}
	.st27{fill:#EDA250;}
	.st28{fill:#1A9CA9;}
	.st29{fill:#F6C274;}
	.st30{fill:#E04E1B;}
	.st31{fill:#F1DFB5;}
	.st32{fill:#D9DBB1;}
	.st33{fill:#E3AB51;}
	.st34{fill:#73D0D7;}
	.st35{fill:#93DCE0;}
	.st36{fill:#D64A1D;}
	.st37{fill:#64D2DD;}
	.st38{fill:#EEA65D;}
	.st39{fill:#38BAC8;}
	.st40{fill:#D4E1CF;}
	.st41{fill:#F7D398;}
	.st42{fill:#E8DCAC;}
	.st43{fill:#7CD2D7;}
	.st44{fill:#4BC9D4;}
	.st45{fill:#1AACBF;}
	.st46{fill:#F6D086;}
	.st47{fill:#F3E9D3;}
	.st48{fill:#DEE4DB;}
	.st49{fill:#31BFD1;}
	.st50{fill:#FBCD86;}
	.st51{fill:#D7D3B2;}
	.st52{fill:#E7A544;}
	.st53{fill:#F3DCB4;}
	.st54{fill:#75C8D3;}
	.st55{fill:#EDD6A3;}
	.st56{fill:#F4B256;}
	.st57{fill:#DEC18A;}
	.st58{fill:#CACCB0;}
	.st59{fill:#F3E1B3;}
	.st60{fill:#F29543;}
	.st61{fill:#F8AF5A;}
	.st62{fill:#D85225;}
	.st63{fill:#F2E0BD;}
	.st64{fill:#F7E8D1;}
	.st65{fill:#4FC8D2;}
	.st66{fill:#CAD5C7;}
	.st67{fill:#F7E1AF;}
	.st68{fill:#43BAC0;}
	.st69{fill:#83D9DA;}
	.st70{fill:#ECDEB1;}
	.st71{fill:#CAF1EF;}
	.st72{fill:#F9D29A;}
	.st73{fill:#F5BC73;}
	.st74{fill:#F6D49C;}
	.st75{fill:#F9DCB0;}
	.st76{fill:#F9D498;}
	.st77{fill:#149EAC;}
	.st78{fill:#94D7D6;}
	.st79{fill:#F7A044;}
	.st80{fill:#F6C589;}
	.st81{fill:#F3E0B7;}
	.st82{fill:#E0C891;}
	.st83{fill:#5CBCCA;}
	.st84{fill:#CDDDCF;}
	.st85{fill:#F68D2C;}
	.st86{fill:#F5AE65;}
	.st87{fill:#C0E1DF;}
	.st88{fill:#10A0B5;}
	.st89{fill:#FCE1AC;}
	.st90{fill:#EAE3BF;}
	.st91{fill:#44C7D2;}
	.st92{fill:#FBC77F;}
	.st93{fill:#62DCDF;}
	.st94{fill:#54DBDE;}
	.st95{fill:#FBBD66;}
	.st96{fill:#E16C3C;}
	.st97{fill:#F28B35;}
	.st98{fill:#F3D6A1;}
	.st99{fill:#EE9F53;}
	.st100{fill:#F6922C;}
	.st101{fill:#91D2D7;}
	.st102{fill:#DAD8B6;}
	.st103{fill:#81D2DD;}
	.st104{fill:#E2DCBB;}
	.st105{fill:#44C6D3;}
	.st106{fill:#ECF0EB;}
	.st107{fill:#DC5427;}
	.st108{fill:#CAD9C7;}
	.st109{fill:#FA922E;}
	.st110{fill:#FA9D38;}
	.st111{fill:#F2DCC4;}
	.st112{fill:#D4D2AF;}
	.st113{fill:#D54017;}
	.st114{fill:#CED5CC;}
	.st115{fill:#DAF4F1;}
	.st116{fill:#F5EDC2;}
	.st117{fill:#78BFCA;}
	.st118{fill:#E1DDBD;}
	.st119{fill:#DC933C;}
	.st120{fill:#EDAE67;}
	.st121{fill:#DEE5DD;}
	.st122{fill:#FCE9BC;}
	.st123{fill:#49C6D2;}
	.st124{fill:#E86618;}
	.st125{fill:#E84A10;}
	.st126{fill:#EEE6D7;}
	.st127{fill:#DB5B35;}
	.st128{fill:#F7D393;}
	.st129{fill:#D6C69A;}
	.st130{fill:#99E3E4;}
	.st131{fill:#D2F4F3;}
	.st132{fill:#4EC6D1;}
	.st133{fill:#E3CD9B;}
	.st134{fill:#C1CCB0;}
	.st135{fill:#F58E37;}
	.st136{fill:#F5B15F;}
	.st137{fill:#5ECFD6;}
	.st138{fill:#F6E8D3;}
	.st139{fill:#F8EFCE;}
	.st140{fill:#36B9C8;}
	.st141{fill:#F4DBA2;}
	.st142{fill:#F37321;}
	.st143{fill:#AFF0F0;}
	.st144{fill:#C6E8E5;}
	.st145{fill:#4EC7D1;}
	.st146{fill:#D3411D;}
	.st147{fill:#D7DCD2;}
	.st148{fill:#F1B16A;}
	.st149{fill:#FBDFAB;}
	.st150{fill:#5DCBD4;}
	.st151{fill:#F4AA57;}
	.st152{fill:#F28725;}
	.st153{fill:#ECEACA;}
	.st154{fill:#F0D8C1;}
	.st155{fill:#F2DECA;}
	.st156{fill:#41BACC;}
	.st157{fill:#C6C19C;}
	.st158{fill:#44C8D3;}
	.st159{fill:#DA9E4D;}
	.st160{fill:#CBBB8B;}
	.st161{fill:#B1F0EF;}
	.st162{fill:#74DBE1;}
	.st163{fill:#9CE0E5;}
	.st164{fill:#F2E9C2;}
	.st165{fill:#FCD191;}
	.st166{fill:#90E0E1;}
	.st167{fill:#F6E1B4;}
	.st168{fill:#F4E8B8;}
	.st169{fill:#E0E9DF;}
	.st170{fill:#A9E2E3;}
	.st171{fill:#FCDB9C;}
	.st172{fill:#CEDECE;}
	.st173{fill:#C0E2DF;}
	.st174{fill:#65D1DA;}
	.st175{fill:#42BECF;}
	.st176{fill:#92D3D5;}
	.st177{fill:#C4BE9C;}
	.st178{fill:#79E3E3;}
	.st179{fill:#37BBC8;}
	.st180{fill:#EEEED8;}
	.st181{fill:#E35C18;}
	.st182{fill:#FACE8D;}
	.st183{fill:#F0DCB3;}
	.st184{fill:#B0F1F0;}
	.st185{fill:#5BD6DD;}
	.st186{fill:#33B8C7;}
	.st187{fill:#79CED8;}
	.st188{fill:#EEAE4F;}
	.st189{fill:#DCCDAD;}
	.st190{fill:#E2D4AB;}
	.st191{fill:#16A2B6;}
	.st192{fill:#64DBE1;}
	.st193{fill:#7AD5D5;}
	.st194{fill:#CDEFEB;}
	.st195{fill:#F8B25B;}
	.st196{fill:#FBBB6D;}
	.st197{fill:#FBE4B0;}
	.st198{fill:#E3AA48;}
	.st199{fill:#F1E3D2;}
	.st200{fill:#D1D8CE;}
</style>
    <path class="st0" d="M235.7,282.6c5.6,5.1,5.6,5.1,12,12c2.3,2.3,4.6,4.5,6.9,6.8c5,4.9,9.9,9.9,14.8,14.9
	c4.1,4.2,8.1,7.9,12.6,11.5c8.9,7.7,11.6,14.2,12.7,25.8c0.6,10.5,0.8,21.1,0.9,31.6c1,42.5,30.6,70.1,59.2,97.8
	c2.8,2.7,2.8,2.7,5.7,5.5c3.7,3.6,7.5,7.2,11.3,10.8c1.7,1.7,3.4,3.3,5.2,5c1.5,1.5,3.1,2.9,4.7,4.4c3,4.3,3,4.3,2.9,9.1
	c-2.9,6.2-6.6,10-11.4,14.9c-1.9,1.9-3.8,3.7-5.7,5.7c-3,2.9-3,2.9-6,5.8c-1.9,1.9-3.9,3.8-5.9,5.8c-8,7.9-15.9,15.6-24.6,22.6
	c-18.8,15.9-27.6,37.8-35.2,60.6c0.3,3.3,0.7,6.5,1.3,9.7c1.8,17.8,1.9,34-9.3,48.8c-7.1,8.5-14.8,16.4-22.8,24.1
	c-1.3,1.3-2.7,2.6-4,3.9c-16.2,15.6-16.2,15.6-25.2,21.6c-8.9-0.8-13.1-5-19.2-11.2c-1.9-1.9-3.8-3.8-5.7-5.7
	c-2.1-2.1-4.1-4.2-6.2-6.3c-2.2-2.2-4.4-4.4-6.6-6.6c-6-6-11.9-12-17.9-18c-6.2-6.3-12.5-12.5-18.7-18.8
	c-11.8-11.8-23.6-23.7-35.4-35.6c-13.4-13.5-26.9-27-40.3-40.5C58,571.1,30.3,543.4,2.7,515.6c3.2-9.2,6.8-15,13.7-21.8
	c2.8-2.8,2.8-2.8,5.6-5.7c3.1-3,3.1-3,6.2-6.1c3.2-3.2,3.2-3.2,6.5-6.5c5.9-5.9,11.8-11.8,17.7-17.7c6.2-6.2,12.3-12.3,18.5-18.5
	c10.3-10.3,20.7-20.7,31-31c12-11.9,23.9-23.9,35.9-35.9c10.3-10.3,20.5-20.6,30.8-30.8c6.1-6.1,12.3-12.3,18.4-18.4
	c6.8-6.8,13.7-13.7,20.5-20.5c3-3.1,3-3.1,6.2-6.2c2.8-2.8,2.8-2.8,5.6-5.6c1.6-1.6,3.2-3.2,4.9-4.9
	C228.5,282.6,228.5,282.6,235.7,282.6z"/>
    <path class="st1" d="M790.7,282.6c7.9,3.4,13.1,7.7,19.2,13.7c1.9,1.9,3.8,3.7,5.7,5.6c2,2,4.1,4.1,6.2,6.2c2.2,2.1,4.3,4.3,6.5,6.5
	c5.9,5.9,11.8,11.7,17.7,17.6c3.7,3.7,7.4,7.3,11.1,11c12.9,12.8,25.7,25.6,38.5,38.4c12,12,24,23.9,36,35.8
	c10.3,10.2,20.6,20.5,30.9,30.8c6.1,6.1,12.3,12.3,18.5,18.4c6.9,6.8,13.7,13.6,20.5,20.5c2.1,2,4.1,4,6.2,6.1
	c1.8,1.9,3.7,3.7,5.6,5.7c1.6,1.6,3.2,3.2,4.9,4.9c3.1,4.6,3.1,4.6,3,9.4c-2.8,6-6.3,9.7-11,14.5c-1.9,1.9-3.7,3.8-5.7,5.7
	c-2.1,2.1-4.1,4.1-6.3,6.2c-2.2,2.2-4.3,4.4-6.6,6.6c-5.9,6-11.9,12-17.9,17.9c-5,5-9.9,10-14.9,14.9
	c-11.7,11.8-23.4,23.5-35.2,35.2c-12.1,12.1-24.2,24.2-36.3,36.4c-10.4,10.4-20.7,20.8-31.1,31.2c-6.2,6.2-12.4,12.4-18.6,18.7
	c-6.9,6.9-13.8,13.8-20.8,20.7c-2.1,2.1-4.1,4.2-6.2,6.3c-1.9,1.9-3.8,3.7-5.7,5.6c-1.6,1.6-3.3,3.3-5,5c-4.7,3.2-4.7,3.2-9.7,2.7
	c-21.5-9.3-44-35.7-57.4-54.8c-5.4-14.1-4-28-2.6-42.8c1.1-24.2-13.4-45.5-28.6-62.9c-16.6-17.9-34.2-34.7-52.9-50.4
	c-6.2-5.3-6.2-5.3-9.6-9.6c0.4-10.4,8.2-16.2,15.3-22.9c1.9-1.9,1.9-1.9,3.9-3.8c5.5-5.4,11.1-10.8,16.7-16.1
	c15.6-15.1,30.2-29.4,41-48.4c2-3.2,2-3.2,4-6.4c9.4-19.4,9.3-38,8.5-59.4c-0.1-17.9-0.1-17.9,6-26.4c4.8-4.8,9.9-9.1,15.1-13.5
	c2.9-3.2,5.8-6.4,8.6-9.8C768.2,302.2,778.1,291,790.7,282.6z"/>
    <path class="st2" d="M509.6,88c9.6,4.5,16.3,10.8,23.7,18.3c1.4,1.4,2.8,2.8,4.2,4.2c4.6,4.5,9.1,9.1,13.6,13.7
	c3.2,3.2,6.4,6.4,9.5,9.5c6.7,6.7,13.3,13.3,20,20c8.5,8.5,17,17,25.5,25.5c6.6,6.6,13.1,13.1,19.7,19.7c3.1,3.1,6.3,6.3,9.4,9.4
	c29.7,29.7,29.7,29.7,41.6,43.9c8,9.2,17.2,17.4,26.1,25.7c1.4,1.4,2.9,2.8,4.4,4.2c1.3,1.2,2.6,2.5,4,3.7c2.5,3.9,2.5,3.9,1.9,8.4
	c-2,5.7-4.2,8.4-8.5,12.6c-1.4,1.4-2.9,2.9-4.3,4.4c-2.4,2.3-2.4,2.3-4.8,4.7c-1.7,1.7-3.3,3.3-5,5c-5.5,5.5-11,10.9-16.6,16.4
	c-3.8,3.8-7.7,7.6-11.5,11.5c-10.1,10.1-20.2,20.1-30.4,30.2c-16.2,16-32.3,32.1-48.5,48.2c-5.6,5.6-11.3,11.2-16.9,16.8
	c-3.5,3.5-7,6.9-10.5,10.4c-1.6,1.5-3.1,3.1-4.7,4.6c-9.2,9.1-17.8,18.6-26.1,28.6c-4.7,4.9-9.2,7.1-15.8,8.7
	c-9.7-9.7-9.7-9.7-19.5-19.5c-1.2-1.2-2.3-2.3-3.5-3.5c-3.2-3.3-6.5-6.5-9.7-9.8c-5-4.9-10-9.5-15.3-14.1
	c-12.1-10.3-22.9-21.7-33.5-33.5c-13.5-14.8-27.6-28.9-41.9-42.9c-3.3-3.3-3.3-3.3-6.7-6.6c-9.3-9.1-18.5-18.3-27.9-27.4
	c-6.9-6.7-13.7-13.5-20.5-20.2c-2.1-2.1-4.3-4.1-6.5-6.2c-1.9-1.9-3.9-3.8-5.8-5.8c-1.7-1.7-3.4-3.4-5.2-5.1
	c-3.3-4.8-3.3-4.8-2.8-9.3c2.2-6,5-9.4,9.3-14.1c1.5-1.7,3-3.4,4.6-5.1c7.6-8.1,15.4-16,23.2-23.8c1.8-1.8,3.5-3.5,5.3-5.3
	c5.8-5.8,11.5-11.5,17.3-17.2c4-4,8-8,12-12c10.5-10.5,21-21,31.6-31.5c10.8-10.7,21.5-21.5,32.3-32.2
	C467.4,130.1,488.5,109,509.6,88z"/>
    <path class="st3" d="M513.5,533c6.3,2,9.2,4.2,13.8,8.9c2.1,2.2,2.1,2.2,4.3,4.4c1.4,1.5,2.9,3,4.4,4.6c1.4,1.5,2.9,2.9,4.4,4.5
	c6.6,6.8,12.9,13.6,18.9,20.9c4.7,5.6,9.1,10,14.7,14.6c8.9,7.6,16.4,15.8,23.9,24.7c4.4,4.7,8.7,8.7,13.6,12.8
	c13.9,12,26.7,25,39.6,38c4.4,4.4,8.8,8.8,13.2,13.2c2.8,2.8,5.7,5.7,8.5,8.5c1.3,1.3,2.6,2.6,3.9,3.9c8.1,8.1,15.5,16.6,22.8,25.5
	c4.1,3.9,4.1,3.9,8,6.9c2.1,1.7,4.3,3.4,6.5,5.1c-1.4,8.4-4.2,12.3-10.2,18.2c-1.7,1.7-3.3,3.3-5,5.1c-1.8,1.8-3.7,3.6-5.6,5.5
	c-1.9,1.9-3.8,3.8-5.8,5.8c-6.4,6.4-12.8,12.7-19.1,19c-4.4,4.4-8.8,8.8-13.2,13.2c-10.4,10.4-20.9,20.8-31.3,31.2
	c-11.9,11.8-23.8,23.7-35.7,35.5c-24.4,24.4-48.9,48.7-73.4,73c-7.4-3.3-12.5-7-18.2-12.7c-1.7-1.6-3.3-3.3-5-4.9
	c-1.8-1.8-3.6-3.6-5.4-5.4c-1.9-1.9-3.8-3.8-5.8-5.7c-6.3-6.2-12.6-12.5-18.8-18.7c-4.4-4.3-8.7-8.7-13.1-13
	c-9.1-9.1-18.2-18.2-27.3-27.3c-10.5-10.5-21.1-21-31.7-31.5c-10.2-10.1-20.3-20.2-30.4-30.3c-4.3-4.3-8.6-8.6-13-12.9
	c-6-6-12.1-12-18.1-18c-1.8-1.8-3.6-3.6-5.5-5.4c-1.6-1.6-3.2-3.3-4.9-5c-1.4-1.4-2.8-2.8-4.3-4.3c-2.7-4.2-2.7-4.2-2.4-9
	c2.5-5.7,5.4-9,9.7-13.4c1.6-1.7,3.2-3.3,4.9-5c2.7-2.7,2.7-2.7,5.4-5.4c1.9-1.9,3.8-3.8,5.7-5.8c6.2-6.3,12.5-12.6,18.7-18.8
	c4.3-4.4,8.7-8.7,13-13.1c9.1-9.1,18.2-18.2,27.3-27.3c10.5-10.5,21-21.1,31.5-31.7c10.1-10.2,20.2-20.3,30.3-30.4
	c4.3-4.3,8.6-8.6,12.9-13c6-6.1,12-12.1,18-18.1c1.8-1.8,3.5-3.6,5.4-5.5c1.7-1.6,3.3-3.2,5-4.9c1.4-1.4,2.8-2.8,4.3-4.3
	C507.2,532.4,507.2,532.4,513.5,533z"/>
    <path class="st4" d="M507.2,532.4c13.5,0.5,20.1,9.3,28.8,18.5c1.4,1.5,2.9,2.9,4.4,4.5c6.6,6.8,12.9,13.6,18.9,20.9
	c4.7,5.6,9.1,10,14.7,14.6c8.9,7.6,16.4,15.8,23.9,24.7c4.4,4.7,8.7,8.7,13.6,12.8c13.9,12,26.7,25,39.6,38
	c4.4,4.4,8.8,8.8,13.2,13.2c2.8,2.8,5.7,5.7,8.5,8.5c1.3,1.3,2.6,2.6,3.9,3.9c8.1,8.1,15.5,16.6,22.8,25.5c4.1,3.9,4.1,3.9,8,6.9
	c2.1,1.7,4.3,3.4,6.5,5.1c-1.4,8.4-4.2,12.3-10.2,18.2c-1.7,1.7-3.3,3.3-5,5.1c-1.8,1.8-3.7,3.6-5.6,5.5c-2.9,2.9-2.9,2.9-5.8,5.8
	c-6.4,6.4-12.8,12.7-19.1,19c-4.4,4.4-8.8,8.8-13.2,13.2c-10.4,10.4-20.9,20.8-31.3,31.2c-11.9,11.8-23.8,23.7-35.7,35.5
	c-24.4,24.4-48.9,48.7-73.4,73c-1.6-0.8-3.2-1.6-4.8-2.4c0.8-131.6,1.6-263.2,2.4-398.8C510.4,534,508.8,533.2,507.2,532.4z"/>
    <path class="st5" d="M512,97.6c7.9,3.9,11,5.6,16.5,11.7c1.2,1.3,2.5,2.7,3.7,4.1c1.3,1.4,2.5,2.8,3.8,4.2c1.3,1.4,2.5,2.7,3.8,4.1
	c5.3,5.8,10.4,11.6,15.1,17.9c4.3,5.1,8.3,9,13.3,13.3c13.5,11.6,26.1,24,38.7,36.5c2.8,2.8,5.7,5.6,8.5,8.3
	c4.2,4.1,8.3,8.2,12.5,12.3c1.3,1.2,2.5,2.4,3.8,3.7c6.8,6.8,10.7,12.5,13.9,21.7c1.1,2.9,2.1,5.8,3.2,8.8c2.4,0.8,4.8,1.6,7.2,2.4
	c0.8,2.4,1.6,4.8,2.4,7.2c2.4,0.8,4.8,1.6,7.2,2.4c0.8,2.4,1.6,4.8,2.4,7.2c9,8.1,9,8.1,19.2,14.4c0,2.4,0,4.8,0,7.2
	c1.6,0,3.2,0,4.8,0c0.8,3.2,1.6,6.3,2.4,9.6c-2.2,1.8-4.5,3.7-6.8,5.6c-4.2,3.5-8.1,6.9-11.9,10.8c-3,2.9-3,2.9-7.8,2.9
	c0,1.6,0,3.2,0,4.8c-2.4,1.6-4.8,3.2-7.2,4.8c-2.6,4.1-2.6,4.1-4.7,8.6c-4.3,8.1-4.3,8.1-9.9,9.8c-1.5,0.3-3.1,0.6-4.7,0.9
	c-2.5,3.9-4.9,8-7.2,12c-8.2,7.2-8.2,7.2-14.4,7.2c0,2.4,0,4.8,0,7.2c-1.6,0-3.2,0-4.8,0c0,1.6,0,3.2,0,4.8c-5.9,2.4-5.9,2.4-12,4.8
	c1.2,1,2.5,2,3.8,3c3.5,4.2,3.5,4.2,3.1,8.6c-2.7,6.9-6.6,10.5-11.8,15.7c-3,3-3,3-6.1,6c-2.1,2-4.2,4.1-6.4,6.2
	c-2.1,2-4.1,4.1-6.3,6.2c-4,3.9-8,7.8-12,11.7c-4.1,4-8.2,8-12.2,12.1c-3,3-6.1,6-9.3,8.9c-1.2,1.1-2.4,2.2-3.6,3.3
	c-1.2,1.1-2.4,2.2-3.6,3.3c-3.4,3.9-3.4,3.9-4,9.8c-1.7,7.8-4.7,10.3-10.7,15.4c-1.7,1.5-3.4,3-5.1,4.5c-1.6,1-3.2,2-4.8,3
	c-2.4-0.8-4.8-1.6-7.2-2.4c1.6-0.8,3.2-1.6,4.8-2.4C512,361.6,512,231.6,512,97.6z"/>
    <path class="st6" d="M230.9,285c0.8,0,1.6,0,2.4,0c0,3,0,6.1,0,9.2c0.1,11.4,0.2,22.8,0.3,34.2c0.1,4.9,0.1,9.8,0.1,14.7
	c0.1,28.6,0.5,52.9,13.9,78.7c0.9,2,1.9,3.9,2.8,5.9c7.1,14.2,17,25.1,28,36.4c2.4,2.6,2.4,2.6,4.9,5.2c9.6,10,19.5,19.1,30.5,27.6
	c3.5,4.1,3.5,4.1,4.3,10.3c-0.8,5.8-0.8,5.8-5.6,10.6c-5.2,0.6-5.2,0.6-11.8,0.6c-3.7,0-3.7,0-7.6,0c-4.1,0-4.1,0-8.3-0.1
	c-4.3,0-4.3,0-8.7,0c-7.9,0-15.8,0-23.7-0.1c-8.3,0-16.5,0-24.8,0c-15.7,0-31.3-0.1-47-0.1c-17.8-0.1-35.7-0.1-53.5-0.1
	c-36.7-0.1-73.4-0.1-110-0.2c-1.2,2.4-1.2,2.4-2.4,4.8c-4-2.4-7.9-4.8-12-7.2c3-8.7,6.3-14.4,12.8-20.9c1.6-1.7,3.3-3.3,5-5.1
	c1.8-1.8,3.6-3.6,5.5-5.4c1.9-1.9,3.8-3.8,5.8-5.8c6.3-6.3,12.6-12.6,18.9-18.9c4.4-4.4,8.8-8.8,13.1-13.2
	c9.2-9.2,18.4-18.4,27.6-27.5c10.6-10.6,21.2-21.2,31.8-31.8c10.2-10.2,20.4-20.5,30.7-30.7c4.3-4.3,8.7-8.7,13-13
	c6.1-6.1,12.1-12.1,18.2-18.2c1.8-1.8,3.6-3.6,5.4-5.5c2.5-2.5,2.5-2.5,5.1-5c1.4-1.4,2.9-2.9,4.3-4.3c5.2-4.2,10.3-6.1,16.6-8.4
	c4.3-4,4.3-4,7.8-8.7C226.5,290.4,228.7,287.6,230.9,285z"/>
    <path class="st7" d="M790.7,287.4c9.8,1.2,14.5,3.7,21.5,10.6c2.7,2.6,2.7,2.6,5.5,5.3c1.9,1.9,3.9,3.9,5.9,5.9
	c2.1,2,4.1,4.1,6.3,6.2c5.7,5.6,11.3,11.2,16.9,16.9c4.7,4.7,9.4,9.4,14.1,14.1c11.1,11.1,22.2,22.1,33.3,33.2
	c11.4,11.5,22.9,22.9,34.4,34.2c9.9,9.8,19.7,19.6,29.5,29.4c5.9,5.9,11.7,11.7,17.6,17.6c6.6,6.5,13.1,13.1,19.6,19.6
	c2.9,2.9,2.9,2.9,6,5.8c1.8,1.8,3.5,3.6,5.3,5.4c1.5,1.5,3.1,3.1,4.7,4.7c3,4.8,3,4.8,2.6,11.1c-2,5.7-2,5.7-6.8,10.5
	c-5.2,0.6-5.2,0.6-11.7,0.7c-2.5,0-4.9,0-7.5,0.1c-2.7,0-5.4,0-8.2,0c-4.3,0-4.3,0-8.6,0.1c-7.8,0.1-15.7,0.1-23.5,0.1
	c-8.2,0-16.4,0.1-24.6,0.1c-15.5,0.1-31,0.2-46.5,0.2c-27.8,0.1-55.6,0.3-83.4,0.4c-8.2,0.1-16.3,0.1-24.5,0.1
	c-9.1,0-18.2,0.1-27.3,0.1c-4.1,0-4.1,0-8.2,0c-2.5,0-4.9,0-7.5,0.1c-2.2,0-4.3,0-6.5,0c-5.3,0-5.3,0-10,2.7
	c-2.4-1.6-4.8-3.2-7.2-4.8c2.1-11.3,8.3-16.8,16.8-24c4-2.4,8-4.8,12-7.2c6.3-5.7,11.3-10.8,15.6-18c3.6-6,3.6-6,9.6-11.7
	c5.7-6,8.3-10.8,11.3-18.5c2.9-7,6.9-13.3,10.9-19.8c8.5-17.9,11.4-35.3,11.5-54.9c0-2.2,0.1-4.4,0.1-6.7c0.1-6.9,0.2-13.9,0.3-20.8
	c0.1-4.8,0.2-9.5,0.2-14.3C790.4,310.5,790.5,298.9,790.7,287.4z"/>
    <path class="st8" d="M235.7,282.6c5.6,5.1,5.6,5.1,12,12c2.3,2.3,4.6,4.5,6.9,6.8c5,4.9,9.9,9.9,14.8,14.9
	c4.1,4.2,8.1,7.9,12.6,11.5c8.9,7.7,11.6,14.2,12.7,25.8c0.6,10.5,0.8,21.1,0.9,31.6c1,42.5,30.6,70.1,59.2,97.8
	c1.9,1.8,3.8,3.7,5.7,5.5c3.7,3.6,7.5,7.2,11.3,10.8c1.7,1.7,3.4,3.3,5.2,5c1.5,1.5,3.1,2.9,4.7,4.4c3,4.3,3,4.3,2.9,9.1
	c-2.9,6.2-6.6,10-11.4,14.9c-1.9,1.9-3.8,3.7-5.7,5.7c-2,1.9-4,3.9-6,5.8c-1.9,1.9-3.9,3.8-5.9,5.8c-8,7.9-15.9,15.6-24.6,22.6
	c-18.1,15.3-33.5,42.1-35.7,66.1c-0.1,2.1-0.2,4.2-0.3,6.3c-0.1,2.3-0.2,4.5-0.3,6.8c-0.1,2.3-0.2,4.7-0.3,7.1
	c-0.2,3.6-0.2,3.6-0.3,7.2c-0.3,5.9-0.5,11.7-0.7,17.6c-1.9,0.3-3.9,0.6-5.9,0.9c-2,0.5-4.1,1-6.2,1.5c-0.8,1.6-1.6,3.2-2.4,4.8
	c-1.6,0-3.2,0-4.8,0c0,1.6,0,3.2,0,4.8c-5.7,6.2-11.5,11.6-18.2,16.8c-6.2,4.7-6.2,4.7-11,11.4c-1.5,1.8-3,3.6-4.5,5.4
	c-2.4,0-4.8,0-7.2,0c-3.3-14.1-2.8-28-2.8-42.4c0-4.8,0-9.7-0.1-14.5c0-25.2,1.5-47,13.9-69.2c1.3-2.3,1.3-2.3,2.5-4.6
	c11.2-19.8,26.5-34.9,43.7-49.6c6.8-5.9,13.4-11.9,19.8-18.1c3.5-3.2,3.5-3.2,7-6.6c5.3-5.8,5.3-5.8,5.4-12.2
	c-4.5-9.4-11.6-15-19.3-21.8c-3.3-3-6.6-6-9.9-9c-1.6-1.5-3.3-3-5-4.6c-20.6-19.1-37.7-37.9-48-64.5c-0.6-1.5-1.2-3-1.8-4.6
	c-5.2-14.1-6.5-26.8-6.6-41.8c-0.1-3.4-0.1-3.4-0.1-6.9c-0.1-7.1-0.2-14.3-0.3-21.4c-0.1-4.9-0.2-9.8-0.2-14.6
	c-0.2-11.9-0.4-23.8-0.5-35.7c-5.5,6.3-11.1,12.7-16.8,19.2c-2.4-0.8-4.8-1.6-7.2-2.4c3.4-3.6,6.9-7.2,10.4-10.8
	c1.9-2,3.8-4,5.8-6.1C228.5,282.6,228.5,282.6,235.7,282.6z"/>
    <path class="st9" d="M790.7,282.6c2.4,0.8,4.8,1.6,7.2,2.4c-2.4,0.8-4.8,1.6-7.2,2.4c0.1,2.9,0.1,5.8,0.2,8.8
	c0.2,10.9,0.3,21.7,0.4,32.6c0,4.7,0.1,9.4,0.2,14c0.8,44.8-4.5,79.4-36.7,113.2c-9.2,9.3-18.7,18.4-28.3,27.4
	c-4.1,3.9-8.1,7.8-12.1,11.7c-1.9,1.7-1.9,1.7-3.8,3.5c-5.5,5.4-8.5,8.6-9.7,16.4c1.3,7,3.5,8.8,9.1,13.1
	c8.3,6.7,15.8,13.7,23.3,21.3c6.5,6.7,13,12.8,20.4,18.5c8.1,6.8,13.9,15.1,19.7,23.9c0.9,1.3,1.8,2.7,2.7,4
	c16.8,26.3,15.6,54.8,15.1,84.9c0,4-0.1,8.1-0.1,12.1c-0.1,9.8-0.2,19.6-0.4,29.5c-7.2-2.4-7.2-2.4-11.3-9c-3-7.4-3.8-11.9-3.2-19.8
	c-3.2,0-6.3,0-9.6,0c0-1.6,0-3.2,0-4.8c-1.6,0-3.2,0-4.8,0c0-1.6,0-3.2,0-4.8c-1.5-0.2-2.9-0.4-4.5-0.6c-5.1-1.8-5.1-1.8-8.2-6
	c-5.3-12.1-7.1-21.1-6.5-34.3c-0.2-7.1-3.3-11.1-7.3-16.8c-2.4-5.6-4.8-11.2-7.2-16.8c-2-3.3-2-3.3-4.1-6.8
	c-3.2-5.3-3.2-5.3-3.2-10.1c-1.6,0-3.2,0-4.8,0c-0.8,1.6-1.6,3.2-2.4,4.8c-1.7-2.5-3.5-5.1-5.3-7.7c-16.8-22.4-38.4-41.6-59.6-59.6
	c-6.2-5.3-6.2-5.3-9.6-9.6c0.4-10.4,8.2-16.2,15.3-22.9c1.9-1.9,1.9-1.9,3.9-3.8c5.5-5.4,11.1-10.8,16.7-16.1
	c15.6-15.1,30.2-29.4,41-48.4c2-3.2,2-3.2,4-6.4c9.4-19.4,9.3-38,8.5-59.4c-0.1-17.9-0.1-17.9,6-26.4c4.8-4.8,9.9-9.1,15.1-13.5
	c2.9-3.2,5.8-6.4,8.6-9.8C768.2,302.2,778.1,291,790.7,282.6z"/>
    <path class="st10" d="M697,515.6c11.8,6.1,20.2,16.5,28.8,26.4c3.4,3.5,6.9,6.9,10.4,10.4c1.5,1.5,3,3.1,4.6,4.7
	c4,3.9,8.1,7.1,12.6,10.5c8.2,6.9,14.1,15.3,20,24.2c0.9,1.3,1.8,2.7,2.7,4c16.8,26.3,15.6,54.8,15.1,84.9c0,4-0.1,8.1-0.1,12.1
	c-0.1,9.8-0.2,19.6-0.4,29.5c-7.2-2.4-7.2-2.4-11.3-9c-3-7.4-3.8-11.9-3.2-19.8c-3.2,0-6.3,0-9.6,0c0-1.6,0-3.2,0-4.8
	c-1.6,0-3.2,0-4.8,0c0-1.6,0-3.2,0-4.8c-1.5-0.2-2.9-0.4-4.5-0.6c-5.1-1.8-5.1-1.8-8.2-6c-5.3-12.1-7.1-21.1-6.5-34.3
	c-0.2-7.1-3.3-11.1-7.3-16.8c-3.6-8.4-3.6-8.4-7.2-16.8c-1.3-2.2-2.7-4.5-4.1-6.8c-3.2-5.3-3.2-5.3-3.2-10.1c-1.6,0-3.2,0-4.8,0
	c-0.8,1.6-1.6,3.2-2.4,4.8c-1.7-2.5-3.5-5.1-5.3-7.7c-15.8-21.1-36-39.8-56.3-56.6c-3.3-3-3.3-3-5.7-7.9c0.8-2.4,1.6-4.8,2.4-7.2
	C663.9,513,681.6,512,697,515.6z"/>
    <path class="st11" d="M347.7,515.5c1.9,0,3.9,0,5.8,0c4.8,0,9.5,0.1,14.3,0.1c1.6,3.2,3.2,6.3,4.8,9.6
	c-32.9,33.3-32.9,33.3-44.4,42.9c-21.3,18.2-33.2,42.9-40.5,69.5c-1.5,5.2-1.5,5.2-4.2,11.5c-2.6,6.1-2.6,6.1-2.1,14.9
	c-0.7,7.6-2.2,9.9-7.6,15.5c-15.8,12.8-15.8,12.8-26,16.2c-3,4.5-3,4.5-5.3,9.8c-0.8,1.8-1.7,3.5-2.5,5.3c-0.6,1.4-1.2,2.7-1.8,4.1
	c-0.8,0-1.6,0-2.4,0c-1.9-18.1-2.9-36.1-3-54.4c0-2.3-0.1-4.7-0.2-7.1c-0.2-34.3,15.3-62.2,38.5-86.9c6.2-6.2,12.7-11.9,19.4-17.6
	c8-7.1,15.4-14.7,22.8-22.3C324.7,515.2,332,515.3,347.7,515.5z"/>
    <path class="st12" d="M512,534.8c0,131.6,0,263.2,0,398.8c-8.1-4-11.9-6.5-18.1-12.6c-1.6-1.6-3.3-3.2-5-4.9
	c-1.8-1.8-3.5-3.5-5.4-5.3c-1.9-1.9-3.8-3.7-5.7-5.6c-6.2-6.2-12.4-12.3-18.6-18.5c-4.3-4.3-8.6-8.6-12.9-12.8c-9-9-18-18-27-26.9
	c-10.4-10.4-20.8-20.8-31.3-31.1c-10-10-20.1-19.9-30.1-29.9c-4.3-4.3-8.5-8.5-12.8-12.7c-6-5.9-11.9-11.9-17.8-17.8
	c-1.8-1.8-3.6-3.5-5.4-5.3c-2.4-2.4-2.4-2.4-4.8-4.9c-2.1-2.1-2.1-2.1-4.3-4.2c-2.7-4.2-2.7-4.2-2.4-9c2.5-5.6,5.3-8.9,9.6-13.3
	c2.4-2.4,2.4-2.4,4.9-4.9c1.8-1.8,3.6-3.5,5.4-5.3c2.8-2.8,2.8-2.8,5.6-5.7c6.2-6.2,12.4-12.4,18.6-18.6c4.3-4.3,8.6-8.6,12.9-12.9
	c9-9,18-18,27-27c10.4-10.4,20.8-20.8,31.2-31.2c10-10,20-20,30-30c4.3-4.3,8.5-8.5,12.8-12.8c5.9-6,11.9-11.9,17.9-17.8
	c1.8-1.8,3.5-3.6,5.4-5.4c1.6-1.6,3.2-3.2,4.9-4.9c1.4-1.4,2.8-2.8,4.3-4.3C504.8,534.8,504.8,534.8,512,534.8z M493.7,563.8
	c-1.7,1.5-3.4,3.1-5.2,4.7c-1.7,1.6-3.5,3.1-5.3,4.8c-3.1,2.7-6.2,5.3-9.3,8c-11.9,10.4-22.9,21.6-33.9,32.9
	c-5.8,5.8-11.6,11.6-17.6,17.3c-4.6,3.9-4.6,3.9-4.1,9.2c-3.2,1.6-6.3,3.2-9.6,4.8c0,1.6,0,3.2,0,4.8c-3.6,1.2-3.6,1.2-7.2,2.4
	c-3.2,4-6.4,8-9.6,12c-2.5,2.1-5.1,4.2-7.7,6.2c-7.1,6.2-7.1,7.1-9.2,15.5c-5.7,2.6-5.7,2.6-12,4.8c-8.7,7.1-13.5,16.2-16.7,26.9
	c-2.6,6.8-2.6,6.8-7.4,9.8c-1.6,0.6-3.2,1.2-4.8,1.8c-5.5,4.4-5.5,4.4-5.1,11.1c0.1,1.9,0.2,3.8,0.3,5.7c2.4,0.8,4.8,1.6,7.2,2.4
	c0.7,1.6,1.4,3.2,2.1,4.8c2.4,5.5,2.4,5.5,9,6.6c1.9,0.2,3.8,0.4,5.7,0.6c0.8,4,1.6,7.9,2.4,12c2.4,0,4.8,0,7.2,0
	c0.1,1.3,0.3,2.7,0.5,4.1c2.8,7.9,7.7,12.1,14,17.6c1.6,0,3.2,0,4.8,0c0,1.6,0,3.2,0,4.8c3.2,0.8,6.3,1.6,9.6,2.4c0,2.4,0,4.8,0,7.2
	c6.2,7.1,10.2,11.4,19.2,14.4c0.8,2.4,1.6,4.8,2.4,7.2c1.6,0,3.2,0,4.8,0c0.8,2.4,1.6,4.8,2.4,7.2c1.6,0,3.2,0,4.8,0
	c0,1.6,0,3.2,0,4.8c1.8,0.5,3.7,1,5.6,1.5c8.4,4.3,10.1,9.1,13.7,17.7c1.6,0,3.2,0,4.8,0c0.8,2.4,1.6,4.8,2.4,7.2
	c7,5,10.5,7.2,19.2,7.2c0,1.6,0,3.2,0,4.8c2.4,0,4.8,0,7.2,0c0.6,1.7,1.3,3.4,2,5.1c6.1,16.1,6.1,16.1,17.3,28.5c3.2,0,6.3,0,9.6,0
	c1.9-6.8,2.7-12.9,2.7-20c0-2,0-4.1,0-6.2c0-2.2,0-4.4,0-6.7c0-2.3,0-4.6,0-7c0-7.6,0-15.2,0-22.8c0-2.6,0-5.2,0-8
	c0-34-0.6-67.9-1.8-101.9c-1.3-38.2-1.1-76.5-1-114.8c0-1.7,0-3.5,0-5.3c0-21.8,0.1-43.5,0.1-65.3
	C500.5,556.4,498.6,559.3,493.7,563.8z"/>
    <path class="st13" d="M521.6,542c15.4,6.6,27.1,21,37.4,33.9c4.8,5.7,9.4,10.1,15,14.9c8.9,7.6,16.4,15.8,23.9,24.7
	c4.4,4.7,8.7,8.7,13.6,12.8c13.9,12,26.7,25,39.6,38c4.4,4.4,8.8,8.8,13.2,13.2c2.8,2.8,5.7,5.7,8.5,8.5c1.3,1.3,2.6,2.6,3.9,3.9
	c8.1,8.1,15.5,16.6,22.8,25.5c4.1,3.9,4.1,3.9,8,6.9c2.1,1.7,4.3,3.4,6.5,5.1c-1.4,7.9-3.8,11.9-9.4,17.5c-1.5,1.5-3,3-4.5,4.6
	c-1.7,1.6-3.3,3.3-5,4.9c-2.6,2.6-2.6,2.6-5.3,5.3c-5.7,5.7-11.5,11.4-17.3,17.2c-4,4-8,7.9-11.9,11.9c-10.5,10.5-21,20.9-31.5,31.3
	c-10.7,10.6-21.4,21.3-32.1,32c-21,20.9-42,41.8-63.1,62.7c-2.4-0.8-4.8-1.6-7.2-2.4c1.5-1.6,3.1-3.3,4.7-5c5.6-6.8,5.6-6.8,6-15.3
	c1.8-11.4,5.3-14.9,13.4-23c3.2-1.6,6.4-3.2,9.6-4.8c2.4-4,4.8-8,7.2-12c8.2-7.2,8.2-7.2,14.4-7.2c0.2-1.5,0.5-3.1,0.8-4.7
	c0.5-1.6,1.1-3.3,1.7-5c3.6-1.2,3.6-1.2,7.2-2.4c0-1.6,0-3.2,0-4.8c4.8-1.2,4.8-1.2,9.6-2.4c1.2-4.8,1.2-4.8,2.4-9.6c4,0,7.9,0,12,0
	c0.5-2.2,1.1-4.5,1.7-6.8c3.2-7.7,3.2-7.7,8.6-10.8c8.7-5.3,12.1-12,17.1-20.7c4.7-6,8.8-7.2,15.9-9.8c1.6-3.2,3.2-6.4,4.8-9.6
	c5.1-1.8,5.1-1.8,9.6-2.4c0-2.4,0-4.8,0-7.2c1.6,0,3.2,0,4.8,0c0-1.6,0-3.2,0-4.8c1.5-0.1,3-0.2,4.5-0.3c1.7-0.7,3.4-1.4,5.1-2.1
	c3.1-7.2,3.1-7.2,4.8-14.4c-1.2-1.1-2.4-2.2-3.6-3.3c-3.6-3.9-3.6-3.9-3.6-8.7c-1.5-0.1-3-0.2-4.5-0.3c-1.7-0.7-3.4-1.4-5.1-2.1
	c-0.7-2.3-1.4-4.7-2.1-7.1c-0.9-2.4-1.8-4.9-2.7-7.4c-7.2-3.5-7.2-3.5-14.4-4.8c0-1.6,0-3.2,0-4.8c-1.3-0.4-2.7-0.9-4.1-1.4
	c-8.1-5-12.4-12.4-17.6-20.3c0.8-0.8,1.6-1.6,2.4-2.4c-2.4-0.8-4.8-1.6-7.2-2.4c0,1.6,0,3.2,0,4.8c-2.4-0.8-4.8-1.6-7.2-2.4
	c-1.2-7.1-1.2-7.1-2.4-14.4c-3.2,0-6.3,0-9.6,0c-3.3-4.7-6.5-9.6-9.6-14.4c-3.2-1.6-6.4-3.2-9.6-4.8c-1.1-1.9-2.3-3.9-3.5-5.9
	c-3.3-6.6-3.3-6.6-9.9-9.6c-7.7-4.9-7.9-9.6-10.7-18.2c-4.6-3-4.6-3-9.6-4.8c-5.7-4.9-8.4-9.3-11.3-16.2
	c-4.9-10.4-11.8-16.2-20.9-23.1C521.6,551.6,521.6,551.6,521.6,542z"/>
    <path class="st14" d="M514.4,333c10.3,2.6,18.4,6.9,27.5,12.2c2.5,1.4,2.5,1.4,5.1,2.9c3.5,2,6.9,4,10.4,6c4.8,2.8,9.6,5.5,14.5,8.2
	c2.8,1.6,5.7,3.3,8.5,4.9c3.8,2.2,3.8,2.2,7.6,4.4c5.7,4.6,5.7,4.6,7.9,10.8c0.2,5.8,0.2,5.8-3,11.3c-1.3,1.3-2.7,2.7-4.1,4.1
	c-1.6,0-3.2,0-4.8,0c-0.8,3.2-1.6,6.3-2.4,9.6c-3.2,0.8-6.3,1.6-9.6,2.4c0,1.6,0,3.2,0,4.8c-3,3.3-3,3.3-7.2,7.2
	c-1.6,1.7-3.3,3.5-5,5.3c-4.7,4.4-4.7,4.4-9.5,4.4c0,1.6,0,3.2,0,4.8c-2.4,1.2-2.4,1.2-4.8,2.4c-2.5,4-4.8,8-7.2,12
	c-4.9,6.8-9.8,13.4-14.8,20.1c-4.9,6.6-4.9,6.6-9.2,15.9C514.4,436,514.4,385.3,514.4,333z"/>
    <path class="st15" d="M509.6,88c9.8,3.9,16.4,10.9,23.7,18.3c1.4,1.4,2.8,2.8,4.2,4.2c4.6,4.5,9.1,9.1,13.6,13.7
	c3.2,3.2,6.4,6.4,9.5,9.5c6.7,6.7,13.3,13.3,20,20c8.5,8.5,17,17,25.5,25.5c6.6,6.6,13.1,13.1,19.7,19.7c3.1,3.1,6.3,6.3,9.4,9.4
	c29.7,29.7,29.7,29.7,41.6,43.9c8,9.2,17.2,17.4,26.1,25.7c1.4,1.4,2.9,2.8,4.4,4.2c1.3,1.2,2.6,2.5,4,3.7c2.5,3.9,2.5,3.9,1.9,8.4
	c-2.1,5.8-4.4,8.5-8.7,12.9c-1.5,1.5-3,3-4.5,4.5c-1.6,1.6-3.3,3.2-4.9,4.9c-2.6,2.6-2.6,2.6-5.2,5.2c-5.7,5.7-11.4,11.3-17,16.9
	c-3.9,3.9-7.9,7.8-11.8,11.8c-10.3,10.3-20.7,20.6-31.1,30.9c-10.6,10.5-21.1,21-31.7,31.5c-20.7,20.6-41.5,41.3-62.2,61.9
	c-0.8-2.4-1.6-4.8-2.4-7.2c6.4-6.4,12.8-12.8,19.2-19.2c1.7-1.7,3.5-3.5,5.3-5.3c5.8-5.7,11.6-11.4,17.4-17.1
	c3.9-3.8,7.8-7.7,11.7-11.5c2-1.9,4-3.9,6.1-5.9c1.9-1.9,3.8-3.7,5.7-5.7c1.7-1.7,3.5-3.4,5.3-5.1c4.5-4.5,4.5-4.5,3.8-11.8
	c-3.5-4.1-3.5-4.1-7.2-7.2c7.1-2.4,7.1-2.4,14.4-4.8c0-1.6,0-3.2,0-4.8c1.6,0,3.2,0,4.8,0c0-2.4,0-4.8,0-7.2c3.5-3,3.5-3,8.1-5.9
	c7.1-4.7,9.9-8,13.5-15.8c1.5-0.3,3-0.6,4.5-0.9c6.9-2.1,8-5.1,11.4-11.3c2.9-5.3,2.9-5.3,5.7-9.5c1.6,0,3.2,0,4.8,0
	c0-1.6,0-3.2,0-4.8c1.5-0.2,3-0.4,4.5-0.6c5.5-1.4,5.5-1.4,8.1-6.8c0.9-2.3,0.9-2.3,1.8-4.7c1.6,0,3.2,0,4.8,0
	c1.2-3.6,1.2-3.6,2.4-7.2c1.6,0,3.2,0,4.8,0c-0.8-3.2-1.6-6.3-2.4-9.6c-1.6,0-3.2,0-4.8,0c-1.6-2.4-3.2-4.8-4.8-7.2
	c-4.3-3.8-8.8-7.3-13.3-10.8c-3.5-3.6-3.5-3.6-3.5-10.8c-3.2-0.8-6.3-1.6-9.6-2.4c0-2.4,0-4.8,0-7.2c-1.5-0.2-3-0.4-4.5-0.6
	c-5.1-1.8-5.1-1.8-7.5-6.2c-0.6-1.8-1.3-3.6-1.9-5.5c-5-12.3-12-20.1-21.5-29.2c-2.3-2.3-2.3-2.3-4.7-4.7
	c-4.9-4.9-9.9-9.7-14.9-14.5c-3.3-3.3-6.7-6.5-10-9.8c-6.1-6-12.2-12-18.4-18c-6.7-6.5-13.3-13.1-19.8-19.6c-2-2-4-3.9-6-5.9
	c-18.2-18-18.2-18-25.2-26.7c-4.2-6-4.2-6-9.6-8.3C510.5,92.6,510.5,92.6,509.6,88z"/>
    <path class="st16" d="M512,90.4c-1.1,11.1-3.1,16.6-11.1,24.5c-1.8,1.8-3.7,3.7-5.6,5.6c-2,1.9-4,3.9-6.1,5.9c-3.1,3-3.1,3-6.2,6.2
	c-6.5,6.5-13.1,12.9-19.7,19.4c-4.4,4.3-8.8,8.7-13.2,13c-8.1,8-16.2,16-24.3,23.9c-7.4,7.2-14.7,14.4-21.9,21.7
	c-14.8,14.8-29.6,29.6-44.4,44.4c-2.1,2.1-2.1,2.1-4.3,4.3c-3.5,3.5-7,6.9-10.5,10.4c-9,9.3-15.7,17.4-20,29.7
	c-4-1.6-7.9-3.2-12-4.8c1-11.6,6.4-16.4,14.4-24c2.8-2.8,5.5-5.5,8.3-8.3c1.5-1.5,3.1-3.1,4.6-4.6c1.6-1.6,3.3-3.3,5-5
	c17.8-17.9,35.6-35.7,53.4-53.6c10.8-10.8,21.5-21.6,32.3-32.4c10.4-10.5,20.8-20.9,31.3-31.3c4-4,7.9-8,11.9-12
	c5.5-5.6,11.1-11.1,16.6-16.7c1.6-1.7,3.3-3.3,5-5c1.5-1.5,3-3,4.6-4.5c2-2,2-2,4-4C507.2,90.4,507.2,90.4,512,90.4z"/>
    <path class="st17" d="M235.7,282.6c5.6,5.1,5.6,5.1,12,12c2.3,2.3,4.6,4.5,6.9,6.8c5,4.9,9.9,9.9,14.8,14.9
	c4.1,4.2,8.1,7.9,12.6,11.5c8.9,7.7,11.6,14.2,12.7,25.8c0.6,10.5,0.8,21.1,0.9,31.6c1,42.6,30.7,69.9,59.1,97.9
	c1.9,1.8,3.7,3.7,5.7,5.6c3.7,3.6,7.4,7.3,11.2,10.9c2.5,2.5,2.5,2.5,5.1,5c2.3,2.2,2.3,2.2,4.6,4.5c3.3,4.1,3.3,4.1,3.3,11.3
	c-4.8,0-4.8,0-9.9-4.8c-3.9-4-7.8-8.1-11.6-12.2c-1.7-1.7-3.3-3.4-5-5.2c-1.6-1.6-3.1-3.3-4.7-5c-5-4.2-8-5.2-14.3-6.4
	c-3.5-3-3.5-3-7.2-7.2c-2-1.9-4.1-3.9-6.2-5.9c-5.1-5.4-7.4-9.3-10.7-15.8c-2.4-0.8-4.8-1.6-7.2-2.4c-9.3-9.3-11.6-18.8-14.4-31.2
	c-0.8-3.4-1.7-6.8-2.5-10.2c-0.8-3.4-1.6-6.9-2.5-10.4c-0.6-2.6-0.6-2.6-1.3-5.2c-4-16.8-6.6-31.5-3.4-48.7c-1.6,0-3.2,0-4.8,0
	c-6-4.5-7.3-7.4-9.5-14.7c-0.8-2.3-1.7-4.6-2.6-6.9c-4.7-2-4.7-2-9.6-2.4c-5.4-5.4-6.8-9.7-9.6-16.8c-1.3-2.1-2.6-4.3-3.9-6.5
	c-3.3-5.6-3.3-5.6-3.3-10.4c-2.4,0.8-4.8,1.6-7.2,2.4c-0.8-2.4-1.6-4.8-2.4-7.2c-5.5,6.3-11.1,12.7-16.8,19.2
	c-2.4-0.8-4.8-1.6-7.2-2.4c3.4-3.6,6.9-7.2,10.4-10.8c1.9-2,3.8-4,5.8-6.1C228.5,282.6,228.5,282.6,235.7,282.6z"/>
    <path class="st18" d="M346.2,700.6c0,2.4,0,4.8,0,7.2c-2.4,1.6-4.8,3.2-7.2,4.8c-2.4,4-4.8,8-7.2,12c-1.4,1.2-2.8,2.5-4.2,3.8
	c-3.5,3.3-3.5,3.3-3,8c3.4,7.2,8.6,11.7,14.4,17.1c1.6,1.6,3.2,3.2,4.8,4.8c5,1.5,5,1.5,9.6,2.4c0.8,4,1.6,7.9,2.4,12
	c2.4,0,4.8,0,7.2,0c2.4,4,4.8,8,7.2,12c4,3.2,8,6.4,12,9.6c0,1.6,0,3.2,0,4.8c3.2,0.8,6.3,1.6,9.6,2.4c0,2.4,0,4.8,0,7.2
	c1.3,0.5,2.7,1,4.1,1.5c6.3,3.7,10,8.4,14.4,14.1c3.4,4.3,3.4,4.3,9.9,9.1c1.7,1.4,3.5,2.8,5.3,4.2c0,1.6,0,3.2,0,4.8
	c4,0,7.9,0,12,0c1,2.6,2.1,5.3,3.2,8c2.8,6.7,5.5,11.4,11.3,16.1c1.6-1.6,3.2-3.2,4.8-4.8c0,4,0,7.9,0,12c4.8,0.8,9.5,1.6,14.4,2.4
	c0,1.6,0,3.2,0,4.8c2.4,0,4.8,0,7.2,0c1.4,2.8,1.4,2.8,2.8,5.6c1.3,2.4,2.5,4.8,3.8,7.3c1.2,2.4,2.5,4.8,3.7,7.3
	c4.2,6.4,6.6,8.5,13.7,11.1c2.4-2.4,4.8-4.8,7.2-7.2c0,8.7,0,17.4,0,26.4c-8-4-11.9-6.5-18-12.5c-1.6-1.6-3.2-3.2-4.9-4.8
	c-1.7-1.7-3.5-3.5-5.3-5.3c-1.9-1.8-3.7-3.7-5.6-5.6c-6.1-6.1-12.2-12.2-18.4-18.3c-4.2-4.2-8.5-8.5-12.7-12.7
	c-8.9-8.9-17.8-17.7-26.7-26.6c-10.3-10.3-20.6-20.5-30.9-30.7c-9.9-9.8-19.8-19.7-29.7-29.6c-4.2-4.2-8.4-8.4-12.7-12.6
	c-5.9-5.8-11.8-11.7-17.6-17.6c-1.8-1.7-3.5-3.5-5.4-5.3c-1.6-1.6-3.2-3.2-4.8-4.9c-2.1-2.1-2.1-2.1-4.2-4.2c-2.6-4.1-2.6-4.1-2.2-9
	c3.2-7.6,9.1-12.8,14.9-18.5c1.2-1.2,2.4-2.4,3.6-3.7C338.1,700.6,338.1,700.6,346.2,700.6z"/>
    <path class="st19" d="M370.3,518c2.4,0,4.8,0,7.2,0c-1.2,9.4-3.3,14.1-10,20.6c-1.6,1.5-3.1,3.1-4.7,4.6c-1.6,1.6-3.3,3.1-5,4.7
	c-1.6,1.6-3.2,3.1-4.8,4.7c-7,6.9-14.1,13.5-21.8,19.7c-18.2,15.5-33.7,42.1-35.9,66.3c-0.1,2.1-0.2,4.2-0.3,6.3
	c-0.1,2.3-0.2,4.5-0.3,6.8c-0.1,2.3-0.2,4.7-0.3,7.1c-0.1,2.4-0.2,4.7-0.3,7.2c-0.3,5.9-0.5,11.7-0.7,17.6c-1.9,0.3-3.9,0.6-5.9,0.9
	c-3,0.7-3,0.7-6.2,1.5c-0.8,1.6-1.6,3.2-2.4,4.8c-1.6,0-3.2,0-4.8,0c0,1.6,0,3.2,0,4.8c-5.7,6.2-11.5,11.6-18.2,16.8
	c-6.2,4.7-6.2,4.7-11,11.4c-1.5,1.8-3,3.6-4.5,5.4c-2.4,0-4.8,0-7.2,0c-2.3-9.8-2.7-18.9-2.6-28.9c0-1.6,0-3.2,0-4.8
	c0-5,0-10,0.1-15.1c0-3.4,0-6.8,0-10.3c0-8.3,0.1-16.7,0.1-25c0.8,0,1.6,0,2.4,0c1.6,21.4,3.2,42.8,4.8,64.9
	c3.2-5.5,6.3-11.1,9.6-16.8c4.3-3.4,4.3-3.4,8.4-5.3c7.7-4,12.1-7.8,18-14c1.6,0,3.2,0,4.8,0c-0.1-1.6-0.2-3.2-0.3-4.8
	c-0.1-2.1-0.1-4.2-0.2-6.4c-0.1-3.1-0.1-3.1-0.3-6.3c0.9-7.8,3.8-11.8,7.9-18.4c1.6-5,3-10,4.4-15c9.6-32.1,33.2-55.9,58.4-77.2
	c4.9-4.2,9.5-8.5,14.2-12.9c2.1-2,2.1-2,4.2-4C371,525.1,371,525.1,370.3,518z"/>
    <path class="st20" d="M641.7,227.3c13.3,11.1,25.7,22.8,38,35c2.7,2.7,2.7,2.7,5.6,5.4c2.6,2.6,2.6,2.6,5.3,5.3
	c2.4,2.3,2.4,2.3,4.8,4.7c4.4,5.4,6.6,10.3,8.8,16.9c-1.6,0-3.2,0-4.8,0c-0.8,3.2-1.6,6.3-2.4,9.6c-2.2,0.2-2.2,0.2-4.5,0.5
	c-1.7,0.6-3.4,1.3-5.1,2c-0.6,1.7-1.2,3.4-1.8,5.2c-4.2,9.5-10.8,15.4-18.2,22.5c-2.1,2-2.1,2-4.1,4c-2.7,2.6-5.4,5.3-8.1,7.9
	c-5.3,5.2-10.6,10.4-15.8,15.7c-1.6,1.5-3.1,3.1-4.8,4.7c-1.4,1.4-2.8,2.8-4.2,4.2c-1.4,1.4-2.8,2.8-4.3,4.2
	c-3.7,3.6-3.7,3.6-5.9,8.5c-1.6,0-3.2,0-4.8,0c0.8,2.1,0.8,2.1,1.7,4.3c0.7,5.3,0.7,5.3-2.1,9.6c-1.5,1.4-2.9,2.9-4.4,4.3
	c-1.6,1.6-3.3,3.3-5,5c-1.8,1.7-3.6,3.5-5.5,5.3c-2.7,2.7-2.7,2.7-5.5,5.5c-5.8,5.8-11.7,11.5-17.6,17.2c-3.9,3.9-7.9,7.8-11.8,11.7
	c-9.7,9.6-19.4,19.1-29.2,28.6c-0.8-2.4-1.6-4.8-2.4-7.2c6.4-6.4,12.8-12.8,19.2-19.2c2.6-2.6,2.6-2.6,5.3-5.3
	c5.8-5.7,11.6-11.4,17.4-17.1c3.9-3.8,7.8-7.7,11.7-11.5c3-2.9,3-2.9,6.1-5.9c1.9-1.9,3.8-3.7,5.7-5.7c1.7-1.7,3.5-3.4,5.3-5.1
	c4.5-4.5,4.5-4.5,3.8-11.8c-3.5-4.1-3.5-4.1-7.2-7.2c4.8-1.6,9.5-3.2,14.4-4.8c0-1.6,0-3.2,0-4.8c1.6,0,3.2,0,4.8,0
	c0-2.4,0-4.8,0-7.2c3.5-3,3.5-3,8.1-5.9c7.1-4.7,9.9-8,13.5-15.8c1.5-0.3,3-0.6,4.5-0.9c6.9-2.1,8-5.1,11.4-11.3
	c2.9-5.3,2.9-5.3,5.7-9.5c1.6,0,3.2,0,4.8,0c0-1.6,0-3.2,0-4.8c1.5-0.2,3-0.4,4.5-0.6c5.5-1.4,5.5-1.4,8.1-6.8
	c0.6-1.5,1.2-3.1,1.8-4.7c1.6,0,3.2,0,4.8,0c1.2-3.6,1.2-3.6,2.4-7.2c1.6,0,3.2,0,4.8,0c-1.2-4.8-1.2-4.8-2.4-9.6
	c-1.6,0-3.2,0-4.8,0c-1.6-2.4-3.2-4.8-4.8-7.2c-4.3-3.8-8.8-7.3-13.3-10.8c-3.5-3.6-3.5-3.6-3.5-10.8c-3.2-0.8-6.3-1.6-9.6-2.4
	c0-2.4,0-4.8,0-7.2c-3.2-0.8-6.3-1.6-9.6-2.4C644.9,238.6,643.4,233,641.7,227.3z"/>
    <path class="st21" d="M716.2,592.5c1.6,0,3.2,0,4.8,0c14.3,19.5,22.6,40.7,24.9,64.7c1.1,9.2,3.7,16.3,8.7,24.2
	c3.6,1.2,3.6,1.2,7.2,2.4c0,1.6,0,3.2,0,4.8c1.6,0,3.2,0,4.8,0c0,1.6,0,3.2,0,4.8c3.2,0,6.3,0,9.6,0c0.4,1.5,0.9,3,1.3,4.5
	c0.6,1.9,1.2,3.9,1.8,5.9c0.9,2.9,0.9,2.9,1.8,5.8c2.2,6.3,2.2,6.3,9.5,12.6c-0.8-30.1-1.6-60.3-2.4-91.3c1.6,0.8,3.2,1.6,4.8,2.4
	c0.1,14.2,0.2,28.5,0.3,42.7c0,4.8,0.1,9.7,0.1,14.5c0.1,7,0.1,13.9,0.1,20.9c0,2.2,0,4.3,0.1,6.6c0,3,0,3,0,6.1c0,1.8,0,3.6,0,5.4
	c-0.6,4.7-0.6,4.7-5.4,11.9c-55.3-47.3-55.3-47.3-59.1-68.5c-0.6-9.9,0.2-19.6,1.2-29.5c0.6-15.3-5.9-31.2-14.2-43.7
	C716.2,597.3,716.2,594.9,716.2,592.5z"/>
    <path class="st22" d="M512,330.6c2.4,0.8,4.8,1.6,7.2,2.4c-1.6,0-3.2,0-4.8,0c0.8,47.6,1.6,95.1,2.4,144.1
	c12.8-17.4,12.8-17.4,24.9-35.3c1.3-1.8,2.6-3.7,3.9-5.6c1.6,0,3.2,0,4.8,0c0-1.6,0-3.2,0-4.8c2.8-0.8,2.8-0.8,5.7-1.7
	c6.8-2.6,6.8-2.6,9.5-9.5c0.5-1.9,1.1-3.8,1.7-5.7c1.6,0,3.2,0,4.8,0c0-1.6,0-3.2,0-4.8c4.8-1.2,4.8-1.2,9.6-2.4
	c0.8-3.2,1.6-6.3,2.4-9.6c1.6,0,3.2,0,4.8,0c0.7-2.3,1.4-4.6,2.1-6.9c2.7-7.5,2.7-7.5,7.5-12.3c4,2.4,7.9,4.8,12,7.2
	c-1.3,9.4-5.5,13.6-12.2,20.1c-3,3-3,3-6.1,6c-2.1,2-4.2,4.1-6.4,6.2c-2.1,2-4.1,4.1-6.3,6.2c-4,3.9-8,7.8-12,11.7
	c-4.1,4-8.2,8-12.2,12.1c-3,3-6.1,6-9.3,8.9c-1.8,1.6-1.8,1.6-3.6,3.3c-1.8,1.6-1.8,1.6-3.6,3.3c-3.4,3.9-3.4,3.9-4,9.8
	c-1.7,7.8-4.7,10.3-10.7,15.4c-1.7,1.5-3.4,3-5.1,4.5c-1.6,1-3.2,2-4.8,3c-2.4-0.8-4.8-1.6-7.2-2.4c2.4-1.2,2.4-1.2,4.8-2.4
	C512,438.5,512,385.3,512,330.6z"/>
    <path class="st23" d="M317.4,503.6c2.4,1.6,4.8,3.2,7.2,4.8c-1.2,10-3.8,14.6-11,21.6c-1.8,1.7-3.5,3.5-5.3,5.3
	c-2.8,2.7-2.8,2.7-5.6,5.4c-1.8,1.8-3.6,3.5-5.4,5.4c-8.1,8-16.3,15.6-25.1,22.9c-11,9.2-17.4,20.8-24.4,33.2c-1,1.7-2,3.4-3,5.1
	c-13.9,25.4-12,53.6-11.7,81.7c0,3.9,0,7.9,0.1,11.8c0.1,9.6,0.1,19.1,0.2,28.7c12.5-7.3,21.4-15.9,30.5-27.2
	c1.8-2.1,3.7-4.3,5.6-6.5c1.6,0,3.2,0,4.8,0c0-1.6,0-3.2,0-4.8c1.6,0,3.2,0,4.8,0c1.6-3.2,3.2-6.3,4.8-9.6c2.4,0,4.8,0,7.2,0
	c-3.8,9-9.4,14.7-16.3,21.6c-1.1,1.1-2.2,2.2-3.4,3.4c-3.5,3.5-7.1,7-10.6,10.5c-2.4,2.4-4.8,4.8-7.2,7.2
	c-5.9,5.8-11.8,11.7-17.7,17.5c-14.6-14.6-10.7-50.9-10.8-70.4c0-41.5,9.9-73.1,37.2-105c1.6,0,3.2,0,4.8,0c0.8-2.4,1.6-4.8,2.4-7.2
	c3.8-3.7,3.8-3.7,8.6-7.7c10.5-8.9,20.2-18.5,29.9-28.4c2.4-2.4,4.8-4.8,7.2-7.2c1.6-1.6,3.2-3.2,4.8-4.8
	C318.6,507.2,318.6,507.2,317.4,503.6z"/>
    <path class="st24" d="M790.7,282.6c2.4,0.8,4.8,1.6,7.2,2.4c-2.4,0.8-4.8,1.6-7.2,2.4c0,33.3,0,66.6,0,100.9c-0.8,0-1.6,0-2.4,0
	c-0.8-27.7-1.6-55.5-2.4-84.1c-1.6,4.8-3.2,9.5-4.8,14.4c-3.5,3.8-3.5,3.8-7.2,6.5c-7.5,5.2-7.5,5.2-12,12.8c-2,1.1-4,2.3-6,3.5
	c-6.8,4.3-8,5.9-10.8,13.4c-0.7,5.8-1.2,11.6-1.5,17.4c-0.2,3-0.4,6.1-0.5,9.2c-0.1,2.3-0.2,4.6-0.4,7c-1.6,0-3.2,0-4.8,0
	c0,1.6,0,3.2,0,4.8c-1.6,0-3.2,0-4.8,0c-0.5-8.5-0.8-16.9-1.1-25.4c-0.1-2.4-0.3-4.8-0.4-7.2c-0.4-17.5-0.4-17.5,5-25.4
	c4.2-4.2,8.6-8,13.3-11.7c2.8-3.2,5.7-6.4,8.4-9.6C768.1,302.4,778,291,790.7,282.6z"/>
    <path class="st25" d="M507.2,532.4c2.4,0,4.8,0,7.2,0c0,128.4,0,256.9,0,389.2c1.6,0,3.2,0,4.8,0c0.2-1.8,0.4-3.6,0.6-5.4
	c2.1-7.8,5.4-11,11.4-16.2c2.4,0.8,4.8,1.6,7.2,2.4c-1.6,1.8-3.2,3.7-4.8,5.6c-5.5,6.1-5.5,6.1-4.8,13.7c-3.2,3.9-3.2,3.9-7.2,7.7
	c-1.3,1.3-2.7,2.5-4.1,3.9c-1,1-2.1,1.9-3.2,2.9c-1.6-0.8-3.2-1.6-4.8-2.4c0.8-131.6,1.6-263.2,2.4-398.8
	C510.4,534,508.8,533.2,507.2,532.4z"/>
    <path class="st26" d="M521.6,542c8.5,3.7,14.3,8.7,20.9,15.2c1.9,1.8,3.8,3.6,5.7,5.5c4.6,5.7,4.6,5.7,5.4,11.3
	c2.2,8.7,6.5,12.3,12.9,18.4c2.3,2.2,4.5,4.4,6.9,6.7c2.4,2.3,4.8,4.6,7.2,6.9c4.7,4.5,9.4,9.1,14.1,13.7c3.1,3,3.1,3,6.4,6.1
	c4.6,5,4.6,5,4.6,9.8c1.4,0.6,2.7,1.1,4.1,1.7c6.8,3.8,11.5,8.6,16.9,14.2c1.9,2,3.8,3.9,5.8,5.9c1.4,1.5,2.9,3,4.4,4.6
	c-2.4,0.8-4.8,1.6-7.2,2.4c0,1.6,0,3.2,0,4.8c-2.4-0.8-4.8-1.6-7.2-2.4c-1.2-7.1-1.2-7.1-2.4-14.4c-3.2,0-6.3,0-9.6,0
	c-3.3-4.7-6.5-9.6-9.6-14.4c-3.2-1.6-6.4-3.2-9.6-4.8c-1.1-1.9-2.3-3.9-3.5-5.9c-3.3-6.6-3.3-6.6-9.9-9.6
	c-7.7-4.9-7.9-9.6-10.7-18.2c-4.6-3-4.6-3-9.6-4.8c-5.7-4.9-8.4-9.3-11.3-16.2c-4.9-10.4-11.8-16.2-20.9-23.1
	C521.6,551.6,521.6,551.6,521.6,542z"/>
    <path class="st27" d="M783.5,373.9c0.8,0,1.6,0,2.4,0c1.4,31.7-6.1,54-27.3,78.3c-8.8,9.4-18.1,18.3-27.5,27.3c-4.1,4-8.3,8-12.4,12
	c-2.5,2.5-5.1,4.9-7.6,7.4c-6.1,5.9-10.9,11.2-14.1,19.2c-4.8-0.8-9.5-1.6-14.4-2.4c1.4-0.5,2.9-1,4.4-1.5c5.9-3,5.9-3,8.6-10.2
	c4.7-9.1,9.8-11.6,18.3-17.1c2.3-2.5,4.5-5.1,6.6-7.8c1.8-2.2,3.6-4.4,5.4-6.6c1.6,0,3.2,0,4.8,0c0.8-2.4,1.6-4.8,2.4-7.2
	c2.4,0,4.8,0,7.2,0c0.1-1.3,0.2-2.7,0.3-4.1c2.4-6.2,4.4-7.8,9.5-11.9c2.3-1.9,4.7-3.8,7.1-5.7c0-1.6,0-3.2,0-4.8
	c0-8.6,2.3-12.2,7.2-19.2c1.6,0,3.2,0,4.8,0c0.4-2.6,0.4-2.6,0.9-5.3c2.1-9.4,4.2-16.7,11.1-23.6C782,385.1,782.8,379.5,783.5,373.9
	z"/>
    <path class="st28" d="M514.4,544.4c1.6,0,3.2,0,4.8,0c2.6,19.2,2.8,38.1,2.7,57.5c0,3.2,0,6.4,0,9.7c0,3,0,6.1,0,9.2
	c0,2.8,0,5.5,0,8.4c-0.3,6.6-0.3,6.6-2.7,11.4c-0.2,6.7-0.3,13.3-0.3,20c0,1.8,0,3.7,0,5.5c0,1.8,0,3.6,0,5.4c0,1.6,0,3.2,0,4.9
	c0.2,5.2,0.2,5.2,1.5,10.9c1.2,6.4,1.5,12.1,1.5,18.6c0,2.4,0,4.7,0,7.2c0,2.5,0,5,0,7.6c0,3.8,0,3.8,0,7.7
	c-0.3,45.3-0.3,45.3-2.7,61.2c-2.4,1.2-2.4,1.2-4.8,2.4C514.4,710.2,514.4,628.6,514.4,544.4z"/>
    <path class="st29" d="M716.2,592.5c1.6,0,3.2,0,4.8,0c14.3,19.5,22.6,40.7,24.9,64.7c1.1,9.2,3.7,16.3,8.7,24.2
	c3.6,1.2,3.6,1.2,7.2,2.4c0,1.6,0,3.2,0,4.8c1.6,0,3.2,0,4.8,0c0,1.6,0,3.2,0,4.8c3.2,0,6.3,0,9.6,0c0.8,5.5,1.6,11.1,2.4,16.8
	c-2.4,1.2-2.4,1.2-4.8,2.4c-2.4-2.7-4.8-5.4-7.2-8.1c-1.3-1.5-2.7-3-4.1-4.6c-3.2-4.1-3.2-4.1-3.2-9c-1.4-0.2-2.8-0.4-4.2-0.6
	c-7-2.3-10.3-5.8-15-11.4c-1.2-3.6-1.2-3.6-2.4-7.2c-0.8,4.8-1.6,9.5-2.4,14.4c-0.8,0-1.6,0-2.4,0c-0.1-3.1-0.1-6.2-0.2-9.4
	c-1-40.4-1-40.4-16.6-77.1C716.2,597.3,716.2,594.9,716.2,592.5z"/>
    <path class="st30" d="M346.2,518c-7.2,4.8-7.2,4.8-15.2,9.1c-9.1,5.2-16.1,11.5-23.4,18.9c-1.3,1.3-2.6,2.6-3.9,3.9
	c-2.7,2.7-5.4,5.4-8.1,8.1c-4.1,4.1-8.2,8.2-12.4,12.3c-2.6,2.6-5.3,5.3-7.9,7.9c-1.2,1.2-2.4,2.4-3.7,3.7
	c-7.5,7.7-12.4,15.1-16.7,25c-0.8,1.6-1.6,3.2-2.4,4.8c-1.6,0-3.2,0-4.8,0c-1.2-16.5,5.4-24.7,15.7-37c9.6-10.6,20.4-20.1,31-29.7
	c6.8-6.1,12.9-12.6,18.9-19.5C323.1,515.5,333,516.1,346.2,518z"/>
    <path class="st31" d="M235.7,282.6c5.6,5.1,5.6,5.1,12,12c2.3,2.3,4.6,4.6,7,6.9c5,4.9,10,10,14.9,15c3.9,4,7.7,7.6,12,11.1
	c5.7,5.1,8.9,9.9,10.1,17.6c0,1.7,0.1,3.4,0.1,5.2c0.1,2.8,0.1,2.8,0.1,5.6c-0.1,8.4-0.4,16.7-1,25.1c-2.4-1.2-2.4-1.2-4.8-2.4
	c-1-6.5-1-6.5-1.5-14.6c-0.2-2.7-0.4-5.3-0.5-8c-0.1-2.1-0.2-4.1-0.4-6.2c-1.6,0-3.2,0-4.8,0c-6-4.5-7.3-7.4-9.5-14.7
	c-0.8-2.3-1.7-4.6-2.6-6.9c-4.7-2-4.7-2-9.6-2.4c-5.4-5.4-6.8-9.7-9.6-16.8c-1.3-2.1-2.6-4.3-3.9-6.5c-3.3-5.6-3.3-5.6-3.3-10.4
	c-2.4,0.8-4.8,1.6-7.2,2.4c-0.8-2.4-1.6-4.8-2.4-7.2c-5.5,6.3-11.1,12.7-16.8,19.2c-2.4-0.8-4.8-1.6-7.2-2.4
	c3.4-3.6,6.9-7.2,10.4-10.8c1.9-2,3.8-4,5.8-6.1C228.5,282.6,228.5,282.6,235.7,282.6z"/>
    <path class="st32" d="M504.8,534.8c2.4,0,4.8,0,7.2,0c0,131.6,0,263.2,0,398.8c-1.6-0.8-3.2-1.6-4.8-2.4c0-127.6,0-255.3,0-386.8
	c-5.9,3.6-5.9,3.6-12,7.2c-3.2,1.6-6.4,3.3-9.6,4.8c2.3-2.7,4.6-5.4,6.9-8.1c1.3-1.5,2.6-3,3.9-4.6
	C499.1,540.7,501.9,537.7,504.8,534.8z"/>
    <path class="st33" d="M370.3,518c2.4,0,4.8,0,7.2,0c-1.2,9.4-3.3,14.1-10,20.6c-1.6,1.5-3.1,3.1-4.7,4.6c-1.6,1.6-3.3,3.1-5,4.7
	c-1.6,1.6-3.2,3.1-4.8,4.7c-7,6.9-14.1,13.5-21.8,19.7c-18.2,15.5-33.7,42.1-35.9,66.3c-0.1,2.1-0.2,4.2-0.3,6.3
	c-0.1,2.3-0.2,4.5-0.3,6.8c-0.1,2.3-0.2,4.7-0.3,7.1c-0.1,2.4-0.2,4.7-0.3,7.2c-0.3,5.9-0.5,11.7-0.7,17.6c-0.8,0-1.6,0-2.4,0
	c-1.2-17.8-1.2-17.8-2.4-36c-1.6,0-3.2,0-4.8,0c0.1,3.1,0.2,6.1,0.3,9.3c0.2,5.2,0.2,5.2-0.3,9.9c-1.6,1.6-3.2,3.2-4.8,4.8
	c-0.2-3.4-0.3-6.7-0.5-10.1c-0.1-1.9-0.2-3.7-0.3-5.7c0.9-7.4,4-11.6,7.9-17.9c1.6-5,3-10,4.4-15c9.6-32.1,33.2-55.9,58.4-77.2
	c4.9-4.2,9.5-8.5,14.2-12.9c2.1-2,2.1-2,4.2-4C371,525.1,371,525.1,370.3,518z"/>
    <path class="st34" d="M644.1,801.5c-3.6,8.5-8.5,13.9-15.1,20.4c-3.2,3.2-3.2,3.2-6.4,6.4c-2.3,2.3-4.6,4.6-6.9,6.9
	c-2.4,2.4-4.7,4.7-7.1,7.1c-6.2,6.2-12.4,12.4-18.6,18.5c-6.4,6.3-12.7,12.6-19,18.9c-12.4,12.4-24.9,24.7-37.3,37.1
	c-2.4-0.8-4.8-1.6-7.2-2.4c2.2-3.1,4.4-6.2,6.6-9.3c1.2-1.7,2.5-3.5,3.7-5.2c4.3-4.9,7.9-6.6,13.7-9.5c4.2-7.3,4.2-7.3,7.2-14.4
	c2.4,0,4.8,0,7.2,0c0-1.6,0-3.2,0-4.8c5.4-4.5,11-8.5,16.7-12.6c5.6-4,5.6-4,7.4-11.4c4.1-4,4.1-4,9.2-8.1c6-5,10.6-9.4,15.5-15.6
	c4.8-5.8,6.8-5.9,13.8-7.5c2.6-4.6,2.6-4.6,4.8-9.6C639.3,801.5,639.3,801.5,644.1,801.5z"/>
    <path class="st35" d="M699.4,285c3.2,2.4,6.3,4.8,9.6,7.2c1.6-0.8,3.2-1.6,4.8-2.4c-1.4,8.8-4.7,12.9-11,19.1
	c-1.8,1.8-3.6,3.7-5.5,5.5c-3,2.9-3,2.9-6,5.9c-2,2-4,4-6.1,6.1c-4.3,4.2-8.5,8.5-12.8,12.7c-6.6,6.5-13.1,13-19.6,19.6
	c-4.1,4.1-8.3,8.2-12.4,12.3c-2,2-3.9,3.9-6,6c-2.7,2.7-2.7,2.7-5.5,5.4c-2.4,2.4-2.4,2.4-4.9,4.8c-4,3.4-4,3.4-8.8,3.4
	c0-2.4,0-4.8,0-7.2c1.6,0,3.2,0,4.8,0c0.6-1.4,1.2-2.7,1.8-4.2c3.5-6.3,7.5-10.6,12.6-15.7c1.7-1.7,3.4-3.4,5.1-5.1
	c4.5-3.9,4.5-3.9,9.3-3.9c0.5-1.3,1-2.6,1.5-3.9c5.5-9.4,13.8-16.3,21.7-23.7c7.5-7.3,11.7-12.8,15.2-22.8c3.2-0.9,6.4-1.7,9.6-2.4
	c3.4-4.4,3.4-4.4,4.8-9.6C700.6,288.6,700.6,288.6,699.4,285z"/>
    <path class="st36" d="M697,515.6c5.1,3.9,9.4,7.5,14,12c1.9,1.8,1.9,1.8,3.8,3.6c8.8,8.4,17.4,17.1,25.9,25.8
	c4.1,4,8.4,7.5,12.9,11.1c14.2,12.1,25.4,26.1,27.3,45c0.1,3.5,0.2,7,0.2,10.5c-5.3-5.3-7.2-10.4-9.9-17.3c-3-6.2-7.4-11-11.7-16.4
	c0-2.4,0-4.8,0-7.2c-1.6,0-3.2,0-4.8,0c-2.9-3.1-2.9-3.1-6.3-7.4c-6.8-8.2-14.2-15-22.3-21.9c-5.3-4.6-10.1-9.6-14.9-14.6
	c-9.2-9.3-17.2-15.8-30.6-16.7c-1.7,0.1-3.4,0.3-5.1,0.5c-0.8-1.6-1.6-3.2-2.4-4.8C681.2,516.1,688.6,514.5,697,515.6z"/>
    <path class="st37" d="M636.9,349.8c0,7.2,0,7.2-2.4,12c-1.6,0-3.2,0-4.8,0c-3.7,7.1-6.7,14.2-9.6,21.6c-1.6,0-3.2,0-4.8,0
	c0.8,2.1,0.8,2.1,1.7,4.3c0.7,5.3,0.7,5.3-2.1,9.6c-1.5,1.4-2.9,2.9-4.4,4.3c-1.6,1.6-3.3,3.3-5,5c-1.8,1.7-3.6,3.5-5.5,5.3
	c-1.8,1.8-3.6,3.6-5.5,5.5c-5.8,5.8-11.7,11.5-17.6,17.2c-3.9,3.9-7.9,7.8-11.8,11.7c-9.7,9.6-19.4,19.1-29.2,28.6
	c-1.2-3.6-1.2-3.6-2.4-7.2c6.4-6.4,12.8-12.8,19.2-19.2c1.7-1.7,3.5-3.5,5.3-5.3c5.8-5.7,11.6-11.4,17.4-17.1
	c3.9-3.8,7.8-7.7,11.7-11.5c2-1.9,4-3.9,6.1-5.9c1.9-1.9,3.8-3.7,5.7-5.7c1.7-1.7,3.5-3.4,5.3-5.1c4.5-4.5,4.5-4.5,3.8-11.8
	c-3.5-4.1-3.5-4.1-7.2-7.2c4.8-1.6,9.5-3.2,14.4-4.8c0-1.6,0-3.2,0-4.8c1.6,0,3.2,0,4.8,0c0-2.4,0-4.8,0-7.2
	c3.7-3.3,3.7-3.3,8.4-6.5c1.6-1,3.1-2.1,4.7-3.2C634.5,351.4,635.7,350.7,636.9,349.8z"/>
    <path class="st38" d="M238.1,371.5c5.6,5.6,6,8.3,7.4,16.1c0.4,2.1,0.8,4.3,1.2,6.5c0.8,5.1,1.5,10.3,2.1,15.4
	c1.4,8.2,3.9,12.8,8.6,19.7c0.8,1.7,1.6,3.4,2.4,5.1c2.6,5,5.5,7.9,9.6,11.7c3.3,3.1,6.5,6.3,9.6,9.6c0,1.6,0,3.2,0,4.8
	c1.4,0.7,2.9,1.3,4.3,2c5.2,2.8,8.6,5.5,12.7,9.7c1.3,1.3,2.7,2.7,4,4.1c1.4,1.4,2.7,2.8,4.1,4.2c2,2.1,2,2.1,4.1,4.1
	c7.5,7.6,14.6,15.4,21.1,23.9c-8.5,0-9.3-1.1-15.3-6.8c-1.6-1.5-3.1-2.9-4.7-4.4c-1.7-1.6-3.3-3.2-5-4.8c-1.7-1.6-3.4-3.3-5.2-4.9
	c-5.2-5-10.3-10-15.4-15c-1.4-1.4-2.9-2.8-4.4-4.3c-21.1-21-40.5-44-41.5-75.2c0-2.5,0.1-5.1,0.1-7.7c0-2.6,0-5.1,0.1-7.8
	C238.1,375.4,238.1,373.5,238.1,371.5z"/>
    <path class="st39" d="M603.3,818.3c4,0,7.9,0,12,0c-2.4,0.8-4.8,1.6-7.2,2.4c-1.8,4.8-1.8,4.8-2.4,9.6c-1.6,0-3.2,0-4.8,0
	c-0.6,1.5-1.3,3.1-2,4.7c-2.9,5-2.9,5-10.1,7.4c-2,4.2-2,4.2-3.3,9.2c-3.3,9.6-7.1,14.3-15.9,19.7c-1.6,0-3.2,0-4.8,0
	c0,1.6,0,3.2,0,4.8c-2.4,0-4.8,0-7.2,0c-0.2,1.4-0.5,2.8-0.8,4.2c-1.9,6.3-4.4,10.2-8.9,15c-2.4,0-4.8,0-7.2,0
	c-0.8,1.6-1.6,3.2-2.4,4.8c-1.2-10.1-0.5-13.7,5.4-22.2c5.8-5.8,9.2-7.9,16.2-11.4c2.4-4,4.8-8,7.2-12c8.2-7.2,8.2-7.2,14.4-7.2
	c0.2-1.5,0.5-3.1,0.8-4.7c0.8-2.5,0.8-2.5,1.7-5c2.4-0.8,4.8-1.6,7.2-2.4c0-1.6,0-3.2,0-4.8c3.2-0.8,6.3-1.6,9.6-2.4
	C601.7,824.7,602.5,821.6,603.3,818.3z"/>
    <path class="st40" d="M127.6,383.5c1.6,1.6,3.2,3.2,4.8,4.8c-9.6,9.6-19.2,19.2-28.9,28.9c-1.7,1.7-3.3,3.3-5.1,5.1
	c-3.5,3.5-7,7-10.5,10.5c-5.2,5.2-10.3,10.4-15.4,15.6c-3.4,3.5-6.8,6.9-10.3,10.4c-1.7,1.8-3.5,3.6-5.3,5.4c-2.5,2.5-2.5,2.5-5,5.1
	c-1.5,1.5-3,3.1-4.6,4.6c-3.9,3.3-3.9,3.3-8.7,3.3c-0.5,1.3-1.1,2.7-1.7,4.1c-4,7.1-9.3,11.9-15.2,17.6c-1.3,1.4-2.7,2.9-4.1,4.4
	c-3.2,2.9-3.2,2.9-8,2.9c0,1.6,0,3.2,0,4.8c-1.6,0-3.2,0-4.8,0c3.7-9,9.3-14.7,16.2-21.5c1.1-1.1,2.3-2.3,3.5-3.5
	c3.8-3.8,7.6-7.5,11.4-11.3c2.6-2.6,5.3-5.2,7.9-7.9c6.9-6.9,13.8-13.8,20.8-20.7c7.1-7,14.1-14.1,21.2-21.1
	C99.9,411,113.7,397.3,127.6,383.5z"/>
    <path class="st41" d="M725.8,424.3c1.6,2.4,3.2,4.8,4.8,7.2c-1.1,0.9-2.2,1.9-3.3,2.9c-4.3,4.2-4.3,4.2-5.9,10.1
	c-3.4,7.6-7,10.4-13.6,15.3c-20.1,15.4-39.8,32.1-55.7,51.8c-1.8,2.1-3.7,4.3-5.6,6.5c-1.6,0-3.2,0-4.8,0
	c1.1-10.3,7.6-15.6,14.7-22.4c1.2-1.2,2.5-2.4,3.8-3.7c5.3-5.2,10.6-10.3,16-15.4c20.6-19.8,20.6-19.8,37-43.2
	C716.8,428.3,720.2,426.6,725.8,424.3z"/>
    <path class="st42" d="M790.7,282.6c2.4,0.8,4.8,1.6,7.2,2.4c-2.4,0.8-4.8,1.6-7.2,2.4c0,33.3,0,66.6,0,100.9c-0.8,0-1.6,0-2.4,0
	c-0.8-30.1-1.6-60.3-2.4-91.3c-4.8,6.3-9.5,12.7-14.4,19.2c-10.8,12.7-19.3,21.2-36,24c4.8-5.6,9.6-11.2,14.4-16.8
	c1.4-1.6,2.7-3.2,4.1-4.8C777.4,291.4,777.4,291.4,790.7,282.6z"/>
    <path class="st43" d="M687.4,710.2c7.2,3.3,12.7,7.1,18.6,12.3c2.2,1.9,2.2,1.9,4.5,3.9c1.1,1,2.2,2,3.3,3
	c-1,10.7-8.5,16.6-15.8,23.7c-1.3,1.3-2.7,2.6-4,4c-4.2,4.2-8.5,8.4-12.8,12.6c-2.9,2.8-5.8,5.7-8.6,8.5c-7.1,7-14.1,13.9-21.2,20.9
	c-2.4-0.8-4.8-1.6-7.2-2.4c0.8-2.4,1.6-4.8,2.4-7.2c2.4-1.2,2.4-1.2,4.8-2.4c0.8-2.4,1.6-4.8,2.4-7.2c1.8-0.7,3.6-1.4,5.4-2.1
	c10.3-4.2,16.6-11.2,22.1-20.9c4.8-7.5,10.8-10.6,18.2-15.5c2.9-4.9,2.9-4.9,4.8-9.6c-1.2-1.2-2.4-2.3-3.7-3.5
	c-1.6-1.5-3.1-3-4.7-4.6c-1.6-1.5-3.1-3-4.7-4.6C687.4,715,687.4,715,687.4,710.2z"/>
    <path class="st44" d="M670.6,698.2c1.6,0,3.2,0,4.8,0c3.6,3.7,3.6,3.7,7.8,8.7c7.4,8.8,15.2,16.9,23.4,24.9
	c-3.6,9.1-8.9,13.7-16.8,19.2c-1.6,0-3.2,0-4.8,0c-0.1,1.4-0.3,2.8-0.5,4.2c-2.7,7.6-7.6,10.2-14,15c-3.2,3.2-6.5,6.3-9.6,9.6
	c1.2-7.1,1.2-7.1,2.4-14.4c2.4,0,4.8,0,7.2,0c0-1.6,0-3.2,0-4.8c2.4,0,4.8,0,7.2,0c2.4-8.3,2.4-8.3,4.8-16.8c1.6,0,3.2,0,4.8,0
	c1.6-4.8,3.2-9.5,4.8-14.4c-1.2-1.1-2.4-2.2-3.6-3.3c-3.6-3.9-3.6-3.9-3.6-8.7c-3.2-0.8-6.3-1.6-9.6-2.4
	C673.8,709.4,672.2,703.9,670.6,698.2z"/>
    <path class="st45" d="M596.1,378.7c3.2,1.6,6.3,3.2,9.6,4.8c-0.8,4.7-0.8,4.7-2.4,9.6c-2.4,0.8-4.8,1.6-7.2,2.4c0,1.6,0,3.2,0,4.8
	c-1.6,0-3.2,0-4.8,0c0,1.6,0,3.2,0,4.8c-1.6,0-3.2,0-4.8,0c0,1.6,0,3.2,0,4.8c-4.5,5.1-4.5,5.1-9.6,9.6c-1.6,0-3.2,0-4.8,0
	c0,1.6,0,3.2,0,4.8c-1.6,0-3.2,0-4.8,0c-1.6,3.2-3.2,6.3-4.8,9.6c-1.6,0-3.2,0-4.8,0c0,1.6,0,3.2,0,4.8c-4.5,5.1-4.5,5.1-9.6,9.6
	c-1.6,0-3.2,0-4.8,0c-1.6,3.2-3.2,6.3-4.8,9.6c-1.6,0-3.2,0-4.8,0c-0.8,2.4-1.6,4.8-2.4,7.2c-0.8-1.6-1.6-3.2-2.4-4.8
	c2.8-3.3,2.8-3.3,5.7-6.6c4.6-5.5,8.3-10.7,11.1-17.4c1.6,0,3.2,0,4.8,0c0-1.6,0-3.2,0-4.8c1.9-0.5,3.8-1.1,5.7-1.7
	c6.8-2.6,6.8-2.6,9.5-9.5c0.5-1.9,1.1-3.8,1.7-5.7c1.6,0,3.2,0,4.8,0c0-1.6,0-3.2,0-4.8c3.2-0.8,6.3-1.6,9.6-2.4
	c0.8-3.2,1.6-6.3,2.4-9.6c1.6,0,3.2,0,4.8,0c0.7-2.3,1.5-4.6,2.3-6.9C593.7,383.5,593.7,383.5,596.1,378.7z"/>
    <path class="st46" d="M697,465.2c0.8,1.6,1.6,3.2,2.4,4.8c-8.3,14.1-19.5,24.7-31.2,36c0.8,2.4,1.6,4.8,2.4,7.2
	c-7.1,1.6-14.3,3.2-21.6,4.8c0,2.4,0,4.8,0,7.2c-3.2-1.6-6.3-3.2-9.6-4.8c1.2-3.6,1.2-3.6,2.4-7.2c0,1.6,0,3.2,0,4.8
	c1.6,0,3.2,0,4.8,0c0.5-1.3,1-2.7,1.5-4.1c3.7-6.1,8-9.6,13.6-14c4.7-4.1,8.5-8.5,12.5-13.2C681.2,478.5,688.5,471.8,697,465.2z"/>
    <path class="st47" d="M766.6,582.9c3.2,0.8,6.3,1.6,9.6,2.4c0,3.2,0,6.3,0,9.6c2.4,0.8,4.8,1.6,7.2,2.4c7.2,11,11.3,20.9,14.4,33.6
	c0.8,0,1.6,0,2.4,0c-0.4,2.8-0.7,5.6-1.1,8.5c-1.8,16.4-2.1,32.8-2.6,49.3c-0.1,3.3-0.2,6.5-0.3,9.8c-0.3,7.9-0.5,15.8-0.7,23.7
	c-0.8,0-1.6,0-2.4,0c0-2.6-0.1-5.2-0.1-7.9c-0.1-9.8-0.3-19.5-0.5-29.3c-0.1-4.2-0.1-8.4-0.2-12.6c-0.1-6.1-0.2-12.1-0.3-18.2
	c0-1.9,0-3.7,0-5.7c-0.3-11.6-2.4-19.3-8.4-29.6c-1.2-3.1-2.4-6.3-3.5-9.5C776.5,599.9,771.9,591.6,766.6,582.9z"/>
    <path class="st48" d="M19.5,530c11.8,1,16.2,6,24,14.4c3.3,2.6,3.3,2.6,6.8,5.3c1.7,1.4,3.5,2.9,5.3,4.4c0,1.6,0,3.2,0,4.8
	c1.6,0,3.2,0,4.8,0c0,1.6,0,3.2,0,4.8c1.6,0,3.2,0,4.8,0c4,4,4,4,8.4,9.3c4.3,5.1,8.5,10,13.2,14.7c-0.9,5.1-0.9,5.1-2.4,9.6
	c-9.2-9.2-18.5-18.4-27.7-27.6c-3.1-3.1-6.3-6.3-9.4-9.4c-4.5-4.5-9-9-13.5-13.5c-1.4-1.4-2.8-2.8-4.3-4.3
	c-3.3-3.3-6.6-6.7-9.9-10.2C19.5,531.6,19.5,530.8,19.5,530z"/>
    <path class="st49" d="M605.7,383.5c1.6,0.8,3.2,1.6,4.8,2.4c-1.3,9.4-5.5,13.6-12.2,20.1c-2,2-4,3.9-6.1,6c-2.1,2-4.2,4.1-6.4,6.2
	c-2.1,2-4.1,4.1-6.3,6.2c-4,3.9-8,7.8-12,11.7c-4.1,4-8.1,8-12.2,12.1c-6.2,6.1-12.7,11.5-19.5,17c1.5-7.1,3-10.5,7.2-16.8
	c1.6,0,3.2,0,4.8,0c1.6-3.2,3.2-6.3,4.8-9.6c1.6,0,3.2,0,4.8,0c0-1.6,0-3.2,0-4.8c4.5-5.1,4.5-5.1,9.6-9.6c1.6,0,3.2,0,4.8,0
	c0-1.6,0-3.2,0-4.8c1.6,0,3.2,0,4.8,0c1.6-3.2,3.2-6.3,4.8-9.6c1.6,0,3.2,0,4.8,0c0-1.6,0-3.2,0-4.8c1.6,0,3.2,0,4.8,0
	c0-1.6,0-3.2,0-4.8c1.6,0,3.2,0,4.8,0c0-1.6,0-3.2,0-4.8c2.4-1.6,4.8-3.2,7.2-4.8C604.1,388.3,604.9,385.9,605.7,383.5z"/>
    <path class="st50" d="M286.2,650.1c0.8,0,1.6,0,2.4,0c0.8,10.3,1.6,20.6,2.4,31.2c-4.8,2.4-4.8,2.4-9.6,4.8
	c-0.8,1.6-1.6,3.2-2.4,4.8c-1.6,0-3.2,0-4.8,0c0,1.6,0,3.2,0,4.8c-5.7,6.2-11.5,11.6-18.2,16.8c-6.2,4.7-6.2,4.7-11,11.4
	c-2.2,2.7-2.2,2.7-4.5,5.4c-2.4,0-4.8,0-7.2,0c0-4.8,0-4.8,3.3-8.7c3.9-3.3,3.9-3.3,8.7-3.3c0.6-1.4,1.3-2.8,1.9-4.2
	c3.1-5.7,6.5-10,10.9-14.9c2.2-2.5,2.2-2.5,4.5-5c5.3-5.7,10.8-11.2,16.4-16.7c4.6-7,5.5-9.4,6.3-17.3
	C285.6,656.3,285.9,653.2,286.2,650.1z"/>
    <path class="st51" d="M478.4,561.2c0.8,3.2,1.6,6.3,2.4,9.6c-4.4,5.4-4.4,5.4-9.6,9.6c-1.6,0-3.2,0-4.8,0c-0.5,1.3-1,2.6-1.6,3.9
	c-4.3,7.6-10.2,13.4-16.4,19.5c-1.2,1.2-2.4,2.4-3.6,3.7c-9,8.9-9,8.9-14.4,8.9c-0.7,1.5-1.4,3.1-2.1,4.7c-2.7,5-2.7,5-7.5,7.4
	c-1.6-1.6-3.2-3.2-4.8-4.8C436.5,603.1,457.1,582.5,478.4,561.2z"/>
    <path class="st52" d="M648.9,518c4.8,2.4,4.8,2.4,6.8,7.1c2.5,5.5,2.5,5.5,8.7,7.2c8,3.3,9,7.2,13.4,14.6c3.1,3.5,6.3,6.8,9.6,10.1
	c1.8,1.8,3.6,3.6,5.5,5.5c1.9,1.8,3.8,3.7,5.7,5.6c1.9,1.9,3.8,3.8,5.8,5.7c4.7,4.7,9.4,9.3,14.2,13.9c-1.6,3.2-3.2,6.3-4.8,9.6
	c-1.7-2.5-3.5-5.1-5.3-7.7c-15.8-21.1-36-39.8-56.3-56.6c-3.3-3-3.3-3-5.7-7.9C647.3,522.8,648.1,520.5,648.9,518z"/>
    <path class="st53" d="M317.4,455.5c11.6,1,17.5,6.5,25.3,14.5c1.2,1.2,2.4,2.4,3.7,3.7c2.5,2.5,5.1,5.1,7.6,7.7
	c3.9,3.9,7.8,7.8,11.7,11.7c2.5,2.5,4.9,5,7.4,7.5c1.2,1.2,2.3,2.3,3.5,3.5c8.1,8.3,8.1,8.3,8.1,16.4c-4.8,0-4.8,0-10.1-5
	c-1-1.1-2.1-2.2-3.1-3.3c-2.6-2.8-5.4-5.4-8.1-8.1c-1.5-1.5-3.1-2.9-4.6-4.4c-1.5-1.4-2.9-2.7-4.4-4.1c-3.3-4-3.3-4-3.3-11.2
	c-1.4-0.1-2.8-0.3-4.2-0.5c-7.6-2.7-10.1-7.6-15-14c-2.6-2.3-5.2-4.5-7.8-6.6c-2.2-1.8-4.4-3.6-6.6-5.4
	C317.4,457.2,317.4,456.4,317.4,455.5z"/>
    <path class="st54" d="M550.4,573.3c9.5,3.9,16.3,10.4,23.7,17.3c1.9,1.8,1.9,1.8,3.9,3.6c6.8,6.3,13.2,12.7,19.1,19.8
	c5.6,6.7,11.1,11.8,18.2,17c-0.8,3.2-1.6,6.3-2.4,9.6c-1.7-1.7-3.5-3.5-5.2-5.3c-6.3-6.3-12.6-12.5-19-18.8
	c-3.4-3.4-6.8-6.8-10.3-10.2c-2.4-2.3-4.7-4.7-7.1-7c-3.4-3.4-6.9-6.8-10.3-10.2c-2-2-4.1-4-6.2-6.1
	C550.4,578.1,550.4,578.1,550.4,573.3z"/>
    <path class="st55" d="M742.6,683.8c6.6,6.6,13.3,13.3,19.8,19.9c2.7,2.8,5.5,5.5,8.2,8.3c1.4,1.4,2.8,2.8,4.2,4.3
	c7.2,7.5,7.2,7.5,15.7,13.1c0.8-1.6,1.6-3.2,2.4-4.8c-0.8,5.5-1.6,11.1-2.4,16.8c-13.1-10.9-25.1-22.4-37.1-34.5
	c-1.8-1.8-3.5-3.5-5.3-5.4c-4.3-4.3-8.6-8.6-12.8-13C737.8,687,740.2,685.4,742.6,683.8z"/>
    <path class="st56" d="M716.2,592.5c1.6,0,3.2,0,4.8,0c14.5,19.7,22.3,40.9,25.2,65c0.8,6.6,1.7,12.7,3.6,19.1
	c-1.6-0.8-3.2-1.6-4.8-2.4c0-1.6,0-3.2,0-4.8c-1.6,0-3.2,0-4.8,0c-0.1-1.7-0.2-3.3-0.3-5c-0.2-2.2-0.3-4.3-0.5-6.6
	c-0.1-2.1-0.3-4.3-0.4-6.5c-1.4-7-3.5-8.2-8.4-13.2c-2.6-7.3-2.6-7.3-5-15.6c-2.5-8.9-4.3-15.1-9.5-22.8
	C716.2,597.3,716.2,594.9,716.2,592.5z"/>
    <path class="st57" d="M730.6,342.6c0.8,0,1.6,0,2.4,0c0,16.6,0,33.3,0,50.4c1.6,0,3.2,0,4.8,0c0.8-1.6,1.6-3.2,2.4-4.8
	c0.9,11.7-1.7,20.5-5.6,31.3c-1.8,4.6-1.8,4.6-1.6,9.5c-4.8,0-9.5,0-14.4,0c1.1-3.9,2.3-7.8,3.5-11.7c1-3.3,1-3.3,1.9-6.6
	c1.8-5.7,1.8-5.7,4.2-10.5c0.4-4.4,0.6-8.7,0.8-13.1c0.1-2.6,0.2-5.2,0.3-7.8c0.1-2.7,0.2-5.4,0.3-8.2c0.2-4.1,0.2-4.1,0.3-8.3
	C730.1,356.1,730.4,349.4,730.6,342.6z"/>
    <path class="st58" d="M235.7,282.6c5.7,5.2,5.7,5.2,12,12c2.1,2.1,4.2,4.2,6.4,6.4c5.9,5.9,11.7,11.7,17.6,17.6
	c-4.3,1.6-4.3,1.6-9.6,2.4c-9.8-5.3-16-12.4-20.3-22.5c-0.4-2.1-0.9-4.2-1.4-6.3c-2.4,0.8-4.8,1.6-7.2,2.4c-0.8-2.4-1.6-4.8-2.4-7.2
	c-5.5,6.3-11.1,12.7-16.8,19.2c-2.4-0.8-4.8-1.6-7.2-2.4c3.4-3.6,6.9-7.2,10.4-10.8c1.9-2,3.8-4,5.8-6.1
	C228.5,282.6,228.5,282.6,235.7,282.6z"/>
    <path class="st59" d="M283.8,681.4c2.4,0,4.8,0,7.2,0c-3.8,9-9.3,14.7-16.2,21.6c-1.7,1.7-1.7,1.7-3.4,3.4c-2.3,2.3-4.7,4.6-7,7
	c-3.6,3.6-7.2,7.1-10.8,10.7c-17.6,17.5-17.6,17.5-20.3,17.5c-0.8-5.6-0.8-5.6,0-12c5.3-3.6,5.3-3.6,12-7.2
	c6.8-6.2,12.7-12.8,18.5-20c2.7-3.2,2.7-3.2,5.6-6.5c1.6,0,3.2,0,4.8,0c0-1.6,0-3.2,0-4.8c1.6,0,3.2,0,4.8,0
	C280.6,687.8,282.1,684.6,283.8,681.4z"/>
    <path class="st60" d="M233.3,633.3c0.8,0,1.6,0,2.4,0c0.8,14.3,1.6,28.5,2.4,43.2c0.8-6.3,1.6-12.7,2.4-19.2c4-0.8,7.9-1.6,12-2.4
	c-2.4,3.6-2.4,3.6-4.8,7.2c-0.1,4-0.1,8,0,12c-1.6,9.2-3.9,18.2-6.2,27.2c-1,3.9-1,3.9-2,7.8c-0.7,2.9-0.7,2.9-1.5,5.9
	c-0.8,0-1.6,0-2.4,0c-2-18.6-2.7-37-2.6-55.7c0-2.5,0-5,0-7.6C233.2,645.6,233.3,639.4,233.3,633.3z"/>
    <path class="st61" d="M783.5,373.9c0.8,0,1.6,0,2.4,0c0.8,17.9,0.3,31.7-7.2,48c-3.2,0-6.3,0-9.6,0c-0.6,2.3-1.2,4.7-1.8,7.1
	c-1,2.4-2,4.9-3,7.4c-5.1,2.1-5.1,2.1-9.6,2.4c2.7-7.1,5.3-12.8,9.6-19.2c1.6,0,3.2,0,4.8,0c0.4-2.6,0.4-2.6,0.9-5.3
	c2.1-9.4,4.2-16.7,11.1-23.6C782,385.1,782.8,379.5,783.5,373.9z"/>
    <path class="st62" d="M742.6,561.2c9.6,5.1,15.4,10.6,22.1,19.2c1.6,2.1,3.2,4.2,4.9,6.3c6.7,9,9.7,14.3,10.6,25.4
	c0.2,2.2,0.4,4.3,0.5,6.6c0.2,2.5,0.2,2.5,0.4,5c-5.3-5.3-7.2-10.4-9.9-17.3c-3-6.2-7.4-11-11.7-16.4c0-2.4,0-4.8,0-7.2
	c-1.6,0-3.2,0-4.8,0c-3.6-4.2-3.6-4.2-7.5-9.6c-1.3-1.8-2.6-3.6-3.9-5.4c-1.5-2.1-1.5-2.1-3-4.2C741,562.9,741.8,562.1,742.6,561.2z
	"/>
    <path class="st63" d="M761.8,445.9c0,7.2,0,7.2-2.9,10.6c-1.9,1.7-1.9,1.7-3.9,3.5c-4.7,4.5-7.9,7.9-11.3,13.5
	c-7.5,12.5-17.6,20.4-30,27.6c-5.7,4.3-5.7,4.3-9.6,9.6c-0.8,6.4-0.8,6.4,0,12c-1.6-0.8-3.2-1.6-4.8-2.4c-0.9-5.1-0.9-5.1,0-12
	c4.4-5.5,8.6-10,13.7-14.8c1.4-1.4,2.8-2.7,4.2-4.1c4.4-4.4,8.9-8.7,13.4-13c3-3,6-5.9,9-8.9C747,460.3,754.4,453.1,761.8,445.9z"/>
    <path class="st64" d="M317.4,503.6c2.4,1.6,4.8,3.2,7.2,4.8c-1.2,10.3-4.2,14.9-11.6,22.1c-2.8,2.7-2.8,2.7-5.6,5.5
	c-1.9,1.8-3.9,3.7-5.8,5.6c-1.9,1.9-3.9,3.8-5.9,5.7c-4.8,4.7-9.6,9.3-14.4,13.9c-1.6-2.4-3.2-4.8-4.8-7.2
	c14.4-14.4,28.8-28.8,43.2-43.2C319,508.4,318.2,506,317.4,503.6z"/>
    <path class="st65" d="M641.7,794.3c1.6,0.8,3.2,1.6,4.8,2.4c0,2.4,0,4.8,0,7.2c-1.3,0.1-2.6,0.3-3.9,0.5c-5.9,2-8.6,4.1-13.2,8.1
	c-6.9,5.9-6.9,5.9-11.7,5.9c-0.6,1.4-1.2,2.7-1.8,4.2c-3.5,6.3-7.5,10.6-12.6,15.7c-1.7,1.7-3.4,3.4-5.1,5.1
	c-4.5,3.9-4.5,3.9-9.3,3.9c-0.8,3.2-1.6,6.3-2.4,9.6c-2.4-7.2-2.4-7.2-0.8-12.2c3.7-5.5,6.8-6.7,12.8-9.5c5.7-4.9,7.2-7,9.6-14.4
	c2.4,0,4.8,0,7.2,0c0.2-1.5,0.5-3.1,0.8-4.7c0.8-2.5,0.8-2.5,1.7-5c2.4-0.8,4.8-1.6,7.2-2.4c0-1.6,0-3.2,0-4.8c3.2,0,6.3,0,9.6,0
	c0-1.6,0-3.2,0-4.8c2.4,0,4.8,0,7.2,0C641.7,797.5,641.7,795.9,641.7,794.3z"/>
    <path class="st66" d="M70,441.1c0,10.3-6.2,14.9-12.9,22.1c-1.2,1.3-2.4,2.7-3.7,4.1c-3.2,3.4-6.5,6.7-9.8,9.9c-1.6,0-3.2,0-4.8,0
	c-0.5,1.3-1.1,2.7-1.7,4.1c-4,7.1-9.3,11.9-15.2,17.6c-1.3,1.4-2.7,2.9-4.1,4.4c-3.2,2.9-3.2,2.9-8,2.9c0,1.6,0,3.2,0,4.8
	c-1.6,0-3.2,0-4.8,0c3.9-9.9,11-16.4,18.4-23.7c1.3-1.3,2.7-2.6,4-4c4.2-4.2,8.5-8.4,12.7-12.6c2.9-2.8,5.7-5.7,8.6-8.5
	C55.9,455,62.9,448.1,70,441.1z"/>
    <path class="st67" d="M742.6,335.4c0.8,2.4,1.6,4.8,2.4,7.2c-0.8,1.6-1.6,3.2-2.4,4.8c-0.5,6.8-0.9,13.6-1.2,20.4
	c-0.9,19.8-0.9,19.8-3.6,25.2c-1.6,0-3.2,0-4.8,0c0-17.4,0-34.9,0-52.9C736.2,338.6,739.4,337.1,742.6,335.4z"/>
    <path class="st68" d="M512,885.6c0.8,0,1.6,0,2.4,0c0,11.9,0,23.8,0,36c1.6,0,3.2,0,4.8,0c0.2-1.8,0.4-3.6,0.6-5.4
	c2.1-7.8,5.4-11,11.4-16.2c2.4,0.8,4.8,1.6,7.2,2.4c-1.6,1.8-3.2,3.7-4.8,5.6c-5.5,6.1-5.5,6.1-4.8,13.7c-3.2,3.9-3.2,3.9-7.2,7.7
	c-1.3,1.3-2.7,2.5-4.1,3.9c-1,1-2.1,1.9-3.2,2.9c-1.6-0.8-3.2-1.6-4.8-2.4C510.4,917.8,511.2,901.9,512,885.6z"/>
    <path class="st69" d="M509.6,88c7.8,3.4,13,7.6,19,13.7c2.6,2.6,2.6,2.6,5.2,5.2c2.6,2.7,2.6,2.7,5.3,5.4c1.8,1.8,3.6,3.6,5.4,5.5
	c4.4,4.5,8.8,8.9,13.2,13.4c-2.4,1.6-4.8,3.2-7.2,4.8c-21.2-20.7-21.2-20.7-28.7-30c-4.4-6.1-4.4-6.1-9.8-8.4
	C510.5,92.6,510.5,92.6,509.6,88z"/>
    <path class="st70" d="M692.2,465.2c0,7.2,0,7.2-3.9,11.2c-1.7,1.4-3.4,2.7-5.1,4.1c-7.7,6.4-13.6,12.9-19.8,20.7
	c-2.5,2.2-5.1,4.4-7.7,6.5c-6.8,4.8-6.8,4.8-9.2,10.4c-1.6,0-3.2,0-4.8,0c1.4-8.6,4.6-12.7,10.7-18.8c1.7-1.7,3.4-3.4,5.1-5.1
	c1.8-1.7,3.5-3.5,5.4-5.2c2.6-2.6,2.6-2.6,5.3-5.3C682.4,469.5,682.4,469.5,692.2,465.2z"/>
    <path class="st71" d="M658.5,239.3c8.3,3.6,13.7,8.3,20,14.7c1.9,1.9,3.8,3.9,5.8,5.9c2,2,4,4,6,6.1c3,3.1,3,3.1,6.1,6.2
	c5,5,9.9,10.1,14.9,15.1c-0.8,2.4-1.6,4.8-2.4,7.2c-7.2-7.1-14.4-14.2-21.6-21.3c-2.4-2.4-4.9-4.8-7.3-7.2c-3.5-3.5-7-6.9-10.5-10.4
	c-2.1-2.1-4.2-4.2-6.4-6.3C658.5,244.1,658.5,244.1,658.5,239.3z"/>
    <path class="st72" d="M235.7,292.2c1.6,0,3.2,0,4.8,0c3.2,6.3,6.3,12.7,9.6,19.2c-2.4-0.8-4.8-1.6-7.2-2.4c0-1.6,0-3.2,0-4.8
	c-1.6,0-3.2,0-4.8,0c0,30.9,0,61.8,0,93.7c-4.9-7.3-5.4-8.6-5.4-16.8c0-1.9,0-3.8,0-5.8c0-2.1,0-4.1,0.1-6.2c0-3.2,0-3.2,0-6.4
	c0-4.5,0-8.9,0.1-13.4c0-6.9,0-13.7,0-20.6c0-4.3,0-8.7,0-13c0-2.1,0-4.1,0-6.3C233.1,294.9,233.1,294.9,235.7,292.2z"/>
    <path class="st73" d="M235.7,309c1.6,0,3.2,0,4.8,0c0.8,22.2,1.6,44.4,2.4,67.3c-0.8,0-1.6,0-2.4,0c-0.8,4-1.6,7.9-2.4,12
	c-0.8,0-1.6,0-2.4,0C235.7,362.1,235.7,336,235.7,309z"/>
    <path class="st74" d="M790.7,282.6c2.4,0.8,4.8,1.6,7.2,2.4c-2.4,0.8-4.8,1.6-7.2,2.4c0,33.3,0,66.6,0,100.9c-0.8,0-1.6,0-2.4,0
	c-0.8-30.1-1.6-60.3-2.4-91.3c-2.4,1.2-2.4,1.2-4.8,2.4c-1.6-1.6-3.2-3.2-4.8-4.8C786.8,285,786.8,285,790.7,282.6z"/>
    <path class="st75" d="M353.4,700.6c0,8.9-2.2,11.9-7.2,19.2c-2,2-4.1,4-6.2,6c-5.8,6-8.2,10.2-10.7,18c-2.4-1.6-4.8-3.2-7.2-4.8
	c1.3-9.3,5.4-12.8,12-19.2c1.7-3,1.7-3,3.5-6.2C342,706.8,346.3,704.2,353.4,700.6z"/>
    <path class="st76" d="M298.2,433.9c6.7,6.1,10.7,10.1,12,19.2c2.4,0,4.8,0,7.2,0c3.3,3.9,6.5,7.9,9.6,12c7.4,8,14.4,14,24,19.2
	c-0.8,1.6-1.6,3.2-2.4,4.8c-8-1.4-11.4-3.6-16.8-9.6c-2-1.9-4.1-3.9-6.2-5.9c-5.1-5.4-7.4-9.3-10.7-15.8c-2.4-0.8-4.8-1.6-7.2-2.4
	C300.3,447.6,298.2,445.2,298.2,433.9z"/>
    <path class="st77" d="M514.4,544.4c1.6,0,3.2,0,4.8,0c2.7,19.3,2.7,38.3,2.6,57.8c0,3.3,0,6.5,0,9.8c0,7.9-0.1,15.8-0.1,23.7
	c-2.4,1.2-2.4,1.2-4.8,2.4C516,607.2,515.2,576.3,514.4,544.4z"/>
    <path class="st78" d="M552.8,133.6c7.6,1.4,11.5,3.4,16.9,8.9c1.3,1.3,2.5,2.6,3.8,3.9c1.3,1.4,2.6,2.7,3.9,4.1
	c1.3,1.4,2.7,2.7,4,4.1c3.3,3.4,6.5,6.7,9.8,10.1c-4.5,1.4-4.5,1.4-9.6,2.4c-4.2-3-4.2-3-8.3-7.5c-2.2-2.3-2.2-2.3-4.4-4.7
	c-1.4-1.5-2.8-3-4.2-4.6c-2.3-2.3-4.7-4.5-7.1-6.8C552.8,138.4,552.8,138.4,552.8,133.6z"/>
    <path class="st79" d="M783.5,674.2c4.5,3.8,7,5.9,8,11.8c0,1.7-0.1,3.3-0.1,5.1c0,1.8,0,3.6-0.1,5.5c-0.1,1.9-0.1,3.8-0.2,5.7
	c0,1.9-0.1,3.8-0.1,5.8c-0.1,4.7-0.2,9.4-0.4,14.2c-2.4-0.8-4.8-1.6-7.2-2.4c-2.3-9.5-2.7-18.4-2.7-28.2c0-2.8,0-5.5,0-8.4
	C781.1,676.6,781.1,676.6,783.5,674.2z"/>
    <path class="st80" d="M788.3,630.9c1.6,0.8,3.2,1.6,4.8,2.4c0.1,12.9,0.1,25.8,0.1,38.7c0,4.4,0,8.8,0,13.2c0,6.3,0,12.6,0.1,18.9
	c0,2,0,3.9,0,6c0,13.9,0,13.9-2.7,19.3c-4.7-1.7-4.7-1.7-9.6-4.8c-1.8-6.3-1.8-6.3-2.4-12c5.9,4.8,5.9,4.8,12,9.6
	C789.9,692.1,789.1,662,788.3,630.9z"/>
    <path class="st81" d="M509.6,542c0,5.5,0,11.1,0,16.8c-0.8-2.4-1.6-4.8-2.4-7.2c-1.3,1.2-2.6,2.3-3.9,3.5c-2.5,2.3-2.5,2.3-5.1,4.6
	c-1.7,1.5-3.3,3-5.1,4.6c-4.8,3.8-9.2,6.5-14.8,9c3.2-15.6,3.2-15.6,10.4-21c2.1-1,4.3-2,6.5-3c2.2-1.3,4.4-2.7,6.6-4.1
	C507.2,542,507.2,542,509.6,542z"/>
    <path class="st82" d="M291,342.6c0.8,0,1.6,0,2.4,0c0.6,9.5,1.1,19,1.7,28.5c0.2,2.7,0.3,5.4,0.5,8.2c0.1,2.6,0.3,5.2,0.4,7.8
	c0.1,2.4,0.3,4.8,0.4,7.2c-0.2,1.9-0.4,3.9-0.6,5.8c-2.4,1.6-4.8,3.2-7.2,4.8c-2.4-12.7-4.8-25.4-7.2-38.4c1.6-0.8,3.2-1.6,4.8-2.4
	c0.8,4.8,1.6,9.5,2.4,14.4C289.4,366.8,290.2,354.9,291,342.6z"/>
    <path class="st83" d="M521.6,542c8.8,3.7,14.4,9.1,21,15.9c1.9,2,3.8,3.9,5.8,5.9c2.2,2.3,2.2,2.3,4.4,4.6c-0.8,2.4-1.6,4.8-2.4,7.2
	c-1.1-0.9-2.1-1.9-3.3-2.8c-1.5-1.3-2.9-2.5-4.4-3.8c-1.5-1.3-3-2.6-4.6-4c-3.7-3.1-7.6-6.1-11.6-8.9c-1.6-1.5-3.3-3-5-4.5
	C521.6,548.5,521.6,545.3,521.6,542z"/>
    <path class="st84" d="M204.5,306.6c0,13.7-12.7,24-21.6,33.6c-6.1,5.3-12.4,10-19.2,14.4c-1.6-0.8-3.2-1.6-4.8-2.4
	C173.9,337.2,189,322.1,204.5,306.6z"/>
    <path class="st85" d="M315,573.3c1.6,0.8,3.2,1.6,4.8,2.4c-0.9,1.1-1.8,2.2-2.7,3.4c-8.6,11-15.2,22-21.1,34.6
	c-2.6,5.3-2.6,5.3-7.4,12.5c-1.6-3.2-3.2-6.3-4.8-9.6c1.6-1.6,3.2-3.2,4.8-4.8c1.6-4,3.2-8,4.8-12c3.6-6.8,3.6-6.8,7.2-12
	c1.6,0,3.2,0,4.8,0c0-1.6,0-3.2,0-4.8c1.6,0,3.2,0,4.8,0C311.8,579.7,313.4,576.5,315,573.3z"/>
    <path class="st86" d="M238.1,371.5c5.6,5.6,6,8.3,7.4,16.1c0.4,2.1,0.8,4.3,1.2,6.5c0.9,5.3,1.7,10.6,2.4,15.9c0.6,7,0.6,7,3.5,12
	c-1.6,1.6-3.2,3.2-4.8,4.8c-7.7-14.4-9.9-25.4-9.8-41.6c0-2.6,0-5.1,0.1-7.8C238.1,375.4,238.1,373.5,238.1,371.5z"/>
    <path class="st87" d="M379.9,217.7c0,13.3-8.3,20.6-17.3,29.6c-3,3-6.1,5.9-9.2,8.9c-2.4-1.6-4.8-3.2-7.2-4.8
	C357.3,240.2,368.4,229.2,379.9,217.7z"/>
    <path class="st88" d="M538.4,441.1c1.6,0,3.2,0,4.8,0c-5,11-12.3,20.1-19.5,29.7c-3.7,5.2-6.7,10.2-9.3,16c0-5.5,0-11.1,0-16.8
	c1.6,0,3.2,0,4.8,0c0.1-1.7,0.3-3.5,0.5-5.3c2.6-8.9,7.2-12.7,14-18.8C535.2,444.4,536.8,442.8,538.4,441.1z"/>
    <path class="st89" d="M271.8,330.6c7.4,6.7,11.3,12.2,14.4,21.6c1.6,0,3.2,0,4.8,0c0,9.5,0,19,0,28.8c-1.6-0.8-3.2-1.6-4.8-2.4
	c-1-6.5-1-6.5-1.5-14.6c-0.2-2.7-0.4-5.3-0.5-8c-0.1-2.1-0.2-4.1-0.4-6.2c-1.6,0-3.2,0-4.8,0c-3.9-2.9-3.9-2.9-7.2-7.2
	C271.3,336.2,271.3,336.2,271.8,330.6z"/>
    <path class="st90" d="M375.1,664.5c2.4,0.8,4.8,1.6,7.2,2.4c-5.1,9.7-10.6,15.1-19.2,21.6c-3.2,3.2-6.5,6.3-9.6,9.6
	c-0.8-1.6-1.6-3.2-2.4-4.8C356.4,681.6,365.8,673.3,375.1,664.5z"/>
    <path class="st91" d="M634.5,669.4c9.6,0,9.6,0,15,4.5c4.2,5.1,4.2,5.1,4.2,9.9c3.2,1.6,6.3,3.2,9.6,4.8c0,1.6,0,3.2,0,4.8
	c2.4,0.8,4.8,1.6,7.2,2.4c-9,2.7-9,2.7-14.4,0c0-1.6,0-3.2,0-4.8c-1.3-0.4-2.7-0.9-4.1-1.4C644,684.6,639.7,677.3,634.5,669.4z"/>
    <path class="st92" d="M728.2,431.5c1.6,0,3.2,0,4.8,0c-3.1,12.1-7.2,17.6-16.8,25.5c-7.5,6.3-13.2,10.9-16.8,20.1
	c-1.6-0.8-3.2-1.6-4.8-2.4c4.7-11.9,9.9-16.7,20.2-23.5c5.3-4.1,6.7-8.6,8.6-15C725,434.7,726.6,433.2,728.2,431.5z"/>
    <path class="st93" d="M612.9,198.5c10.9,8.8,20.2,17.8,28.8,28.8c-2.4,3.6-2.4,3.6-4.8,7.2c-1.6-1.6-3.2-3.2-4.8-4.8
	c-1.6,0-3.2,0-4.8,0c0-4,0-7.9,0-12c-1.5-0.5-3-1-4.5-1.5C615.7,211.6,615,206.5,612.9,198.5z"/>
    <path class="st48" d="M108.4,611.7c2.7,2.2,5.3,4.5,8,6.8c1.5,1.3,3,2.5,4.5,3.8c8.6,7.6,12.4,11.4,14,23.1
	c-10.1-8.4-19.7-17-28.8-26.4C106.8,616.5,107.6,614.1,108.4,611.7z"/>
    <path class="st94" d="M579.3,164.9c10.9,8.8,20.2,17.8,28.8,28.8c-3.2,0.8-6.3,1.6-9.6,2.4c-2.8-2.9-5.5-5.9-8.3-8.9
	c-1.5-1.6-3.1-3.3-4.6-5C581.3,176.3,580.2,172.1,579.3,164.9z"/>
    <path class="st95" d="M291,645.3c1.2,17.4,1.2,17.4-4.2,25.7c-1.8,1.8-3.6,3.7-5.4,5.6c-1.6,2.2-3.3,4.4-5,6.6
	c-4.7,5.4-4.7,5.4-11.9,7.8c0.5-4.2,0.5-4.2,2.4-9.6c1.9-1.3,3.9-2.6,5.9-3.9c8.2-7.6,8.4-13.8,9.9-24.6c0.4-1.7,0.7-3.4,1.1-5.2
	C288.6,645.3,288.6,645.3,291,645.3z"/>
    <path class="st96" d="M245.3,602.1c2.7,4,2.7,4,4.8,9.6c-1.5,6.6-1.5,6.6-4.2,13.7c-0.9,2.3-1.8,4.7-2.7,7.1
	c-2.7,5.7-2.7,5.7-7.5,8.1C234.6,624.9,237.4,615.5,245.3,602.1z"/>
    <path class="st97" d="M327,515.6c13.5,0,27,0,40.8,0c1.6,3.2,3.2,6.3,4.8,9.6c-5.5,5.5-11.1,11.1-16.8,16.8
	c-0.8-2.4-1.6-4.8-2.4-7.2c1.5-0.5,3.1-1.1,4.7-1.7c1.6-1,3.3-2.1,5-3.2c0.8-4,1.6-7.9,2.4-12c-12.7,0-25.4,0-38.4,0
	C327,517.2,327,516.4,327,515.6z"/>
    <path class="st98" d="M291,397.9c7.1,3.5,8,9.2,10.6,16.3c2.1,7.7,1.9,14.2,1.4,22.1c-6.6-5.7-9.6-10.8-12-19.2
	C290.6,410.6,290.8,404.4,291,397.9z"/>
    <path class="st99" d="M250.1,421.9c1.6,0,3.2,0,4.8,0c1,2.6,2.1,5.3,3.2,8c2.9,6.8,5.5,11.3,11.3,16.1c3.3,3.1,6.5,6.3,9.6,9.6
	c0,1.6,0,3.2,0,4.8c-11.8-5.1-19.1-13.7-26.4-24C250.3,427.9,250.3,427.9,250.1,421.9z"/>
    <path class="st100" d="M723.4,587.7c0.8,3.2,1.6,6.3,2.4,9.6c1.6,0,3.2,0,4.8,0c5.5,4.1,7,6.4,8.4,13.2c0.2,3.2,0.2,3.2,0.4,6.5
	c0.2,2.2,0.3,4.3,0.5,6.6c0.1,1.7,0.2,3.3,0.3,5c-6.7-3.3-7.4-8.1-10.1-14.8c-2-4.9-2-4.9-6.1-10.9c-3-5.6-3-5.6-2.3-11.1
	C722.3,590.4,722.8,589.1,723.4,587.7z"/>
    <path class="st101" d="M687.4,710.2c7,3.2,12.7,6.9,18.6,11.9c2.2,1.8,2.2,1.8,4.5,3.7c3.3,3.7,3.3,3.7,3.3,10.9
	c-7.2,0-7.2,0-11.5-4c-1.5-1.7-2.9-3.4-4.4-5.2c-1.5-1.7-2.9-3.4-4.4-5.2C689.8,717.4,689.8,717.4,687.4,710.2z"/>
    <path class="st102"
          d="M413.5,626.1c0,9.7-3.4,16.8-9.6,24c-5.7,2.8-10.4,3.7-16.8,4.8C395.5,644.9,404.1,635.2,413.5,626.1z"/>
    <path class="st103" d="M588.9,611.7c7.2,3.3,12.7,7.1,18.6,12.3c2.2,1.9,2.2,1.9,4.5,3.9c1.1,1,2.2,2,3.3,3
	c-0.8,3.2-1.6,6.3-2.4,9.6c-4-4-8-8-12-12c-2.2-2.1-4.5-4.3-6.8-6.5C588.9,616.5,588.9,616.5,588.9,611.7z"/>
    <path class="st104" d="M245.3,301.8c7,0.2,11,1.4,16,6.3c3.6,4.2,7.1,8.5,10.4,12.9c-9.7-0.7-13.8-1.9-21.3-8.3
	C245.3,306.6,245.3,306.6,245.3,301.8z"/>
    <path class="st105" d="M598.5,626.1c3.6,2.4,3.6,2.4,7.2,4.8c0,1.6,0,3.2,0,4.8c1.4,0.6,2.9,1.2,4.4,1.8c5.9,3.4,8.7,7,12.5,12.6
	c-5.3,0.9-5.3,0.9-12,0c-6.8-6.6-6.8-6.6-12-14.4C598.5,632.5,598.5,629.4,598.5,626.1z"/>
    <path class="st106"
          d="M132.4,635.7c21.2,14.3,21.2,14.3,24,26.4c-9.4-3.1-15.4-6.6-21.6-14.4C133,641.1,133,641.1,132.4,635.7z"/>
    <path class="st107" d="M257.4,582.9c0.8,0,1.6,0,2.4,0c0.7,11.9,0.3,19.3-7.2,28.8c-1.6,0-3.2,0-4.8,0
	C246.5,599,249.5,592.8,257.4,582.9z"/>
    <path class="st108" d="M127.6,383.5c1.6,1.6,3.2,3.2,4.8,4.8c-3.3,3.5-6.7,7-10.1,10.5c-1.9,2-3.7,3.9-5.7,5.9
	c-5.9,5.2-10.5,7.6-17.9,10C107.9,403.8,117.4,393.4,127.6,383.5z"/>
    <path class="st109" d="M242.9,654.9c5,1.1,5,1.1,9.6,2.4c-1.6,1.6-3.2,3.2-4.8,4.8c0,1.8,0,3.7,0,5.6c0,7.2-1.8,11.9-4.8,18.5
	c-1.6,0-3.2,0-4.8,0c0.3-4.8,0.7-9.5,1.1-14.3c0.2-2.6,0.4-5.3,0.6-8C240.5,657.3,240.5,657.3,242.9,654.9z"/>
    <path class="st110" d="M283.8,626.1c1.6,0,3.2,0,4.8,0c-1.5,15.7-1.5,15.7-6.2,21.5c-1.1,0.8-2.3,1.7-3.5,2.6
	c-0.8-6.3-1.6-12.7-2.4-19.2c2.4,0,4.8,0,7.2,0C283.8,629.3,283.8,627.7,283.8,626.1z M271.8,633.3c2.4,1.2,2.4,1.2,4.8,2.4
	c-2.4,1.2-2.4,1.2-4.8,2.4C271.8,636.5,271.8,635,271.8,633.3z"/>
    <path class="st111" d="M766.6,582.9c3.2,0.8,6.3,1.6,9.6,2.4c0,3.2,0,6.3,0,9.6c2.4,0.8,4.8,1.6,7.2,2.4c1.8,4.1,1.8,4.1,3,9.2
	c0.4,1.7,0.8,3.3,1.2,5c0.6,5.5-0.2,9.4-1.8,14.7c-0.6-1.7-1.2-3.4-1.8-5.2C779.3,607.3,774.3,595.1,766.6,582.9z"/>
    <path class="st112" d="M478.4,561.2c0.8,3.2,1.6,6.3,2.4,9.6c-4.4,5.4-4.4,5.4-9.6,9.6c-1.6,0-3.2,0-4.8,0c-0.8,2.4-1.6,4.8-2.4,7.2
	c-2.4-1.6-4.8-3.2-7.2-4.8C463.9,575.7,471,568.6,478.4,561.2z"/>
    <path class="st113" d="M721,542c9.2,3.7,15,9.5,21.6,16.8c0,1.6,0,3.2,0,4.8c-8.6-1.3-12-4.2-17.4-11c-1.3-1.5-2.5-3.1-3.8-4.7
	c-0.9-1.2-1.9-2.4-2.8-3.6C719.4,543.6,720.2,542.8,721,542z"/>
    <path class="st114" d="M19.5,530c7.4,0.8,11.5,2,17.4,6.6c4.6,6,5.8,10,6.6,17.4C25.6,539.3,25.6,539.3,19.5,530z"/>
    <path class="st115" d="M504.8,97.6c0,7.2,0,7.2-5.3,13.2c-2.2,2.1-4.5,4.3-6.8,6.5c-2.2,2.2-4.5,4.3-6.8,6.6c-1.7,1.7-3.5,3.3-5.3,5
	c0-9.9,3.6-13.8,9.6-21.6C495,103.5,499.7,100.6,504.8,97.6z"/>
    <path class="st116" d="M459.1,878.4c9.2,3.7,15,9.5,21.6,16.8c0,1.6,0,3.2,0,4.8c-10.2-1.1-15.1-6.8-21.6-14.4
	C459.1,883.2,459.1,880.8,459.1,878.4z"/>
    <path class="st117"
          d="M615.3,633.3c18,14.8,18,14.8,24,24c-10.5-2.9-17.3-5.6-24-14.4C615.3,639.8,615.3,636.6,615.3,633.3z"/>
    <path class="st118"
          d="M461.6,585.3c-3.7,9.2-9.5,15-16.8,21.6c-1.6,0-3.2,0-4.8,0C441.3,594.9,449.4,585.3,461.6,585.3z"/>
    <path class="st119" d="M648.9,518c4.8,2.4,4.8,2.4,6.8,7.1c3.8,6.6,7.8,7.5,14.9,9.8c-0.8,2.4-1.6,4.8-2.4,7.2
	c-7.2,0-7.2,0-11.1-3.4c-1.3-1.5-2.6-3-3.9-4.5c-1.3-1.5-2.6-3-3.9-4.5c-0.9-1.4-1.8-2.9-2.7-4.4C647.3,522.8,648.1,520.5,648.9,518
	z"/>
    <path class="st120" d="M298.2,484.4c9.4,0.5,11.8,2.2,18.3,9.3c1.9,2.5,3.8,5,5.7,7.5c2.4,2.4,4.7,4.9,7.2,7.2
	c-9.9,0-12.5-4-19.7-10.7c-2.2-2-4.3-4-6.6-6c-1.7-1.6-3.3-3.3-5-5C298.2,486,298.2,485.2,298.2,484.4z"/>
    <path class="st121" d="M149.2,659.7c11.6,1,16.4,5.9,24,14.4c-0.8,2.4-1.6,4.8-2.4,7.2c-2.7-2.2-5.4-4.5-8.1-6.8
	c-1.5-1.3-3-2.5-4.6-3.8C154.1,666.9,154.1,666.9,149.2,659.7z"/>
    <path class="st122" d="M507.2,904.8c0.8,0,1.6,0,2.4,0c0,8.7,0,17.4,0,26.4c-3.2-1.6-6.3-3.2-9.6-4.8c0-4,0-7.9,0-12
	c1.6-0.8,3.2-1.6,4.8-2.4C505.6,909.6,506.4,907.2,507.2,904.8z"/>
    <path class="st123" d="M552.8,876c1.6,0,3.2,0,4.8,0c-1.4,8-4,13.2-9.6,19.2c-2.4,0-4.8,0-7.2,0c-0.8,1.6-1.6,3.2-2.4,4.8
	c0.8-4,1.6-7.9,2.4-12c2.4,0,4.8,0,7.2,0c0.3-1.5,0.7-3.1,1.1-4.7C550.4,878.4,550.4,878.4,552.8,876z"/>
    <path class="st124" d="M781.1,628.5c2.4,0.8,4.8,1.6,7.2,2.4c0,10.3,0,20.6,0,31.2c-6.4-6.4-5.7-10.6-6.3-19.5
	c-0.2-2.6-0.4-5.3-0.5-8C781.3,632.6,781.2,630.6,781.1,628.5z"/>
    <path class="st125" d="M288.6,558.8c1.6,0.8,3.2,1.6,4.8,2.4c-10.3,10.3-20.6,20.6-31.2,31.2c-0.8-3.2-1.6-6.3-2.4-9.6
	c1.6-0.8,3.3-1.7,5-2.6C273.9,574.3,281,566.8,288.6,558.8z"/>
    <path class="st126" d="M713.8,518c0.6,1.5,1.3,3.1,2,4.7c2.6,5.8,2.6,5.8,10.1,7.4c-1.6,3.2-3.2,6.3-4.8,9.6
	c-5.5-5.5-11.1-11.1-16.8-16.8C707.4,521.2,710.5,519.6,713.8,518z"/>
    <path class="st127" d="M276.6,561.2c1.6,2.4,3.2,4.8,4.8,7.2c-4.8,4.8-9.5,9.5-14.4,14.4c-2.4-0.8-4.8-1.6-7.2-2.4
	C265.3,574.1,270.9,567.8,276.6,561.2z"/>
    <path class="st128" d="M697,465.2c0.8,1.6,1.6,3.2,2.4,4.8c-3.4,7.6-5.8,11.3-13.2,15.2c-6,1.7-6,1.7-13.2,1.7
	C680.9,479.6,688.8,472.5,697,465.2z"/>
    <path class="st129" d="M706.6,443.5c0.8,1.6,1.6,3.2,2.4,4.8c-3.3,8.6-6,13.5-13.4,19.1c-1.9,0.8-3.9,1.7-5.9,2.6
	c-1.6-0.8-3.2-1.6-4.8-2.4c1.7-1.7,1.7-1.7,3.5-3.4c1.5-1.5,3-3,4.6-4.5c2.3-2.2,2.3-2.2,4.6-4.5
	C702.2,450.5,702.2,450.5,706.6,443.5z"/>
    <path class="st130" d="M473.6,443.5c0.8,2.4,1.6,4.8,2.4,7.2c1.6,0,3.2,0,4.8,0c0,5.5,0,11.1,0,16.8c-6-5.4-6-5.4-12-12
	c0-3.2,0-6.3,0-9.6C470.3,445.1,471.9,444.4,473.6,443.5z"/>
    <path class="st131" d="M327,273c1.6,2.4,3.2,4.8,4.8,7.2c-2.3,2.4-4.6,4.8-6.9,7.2c-1.3,1.3-2.6,2.7-3.9,4.1
	c-3.6,3.2-3.6,3.2-8.4,3.2c0.7-8.8,1.8-11.5,8.6-17.6C323.1,275.7,325,274.3,327,273z"/>
    <path class="st132" d="M531.2,900c2.4,0.8,4.8,1.6,7.2,2.4c-2.4,2.7-2.4,2.7-4.8,5.6c-5.5,6.1-5.5,6.1-4.8,13.7
	c-2.4,0.8-4.8,1.6-7.2,2.4c1.5-15.7,1.5-15.7,6.2-21.5C529.5,901.3,529.5,901.3,531.2,900z"/>
    <path class="st133" d="M742.6,683.8c11.7,11.4,11.7,11.4,14.4,16.8c-1.6,1.6-3.2,3.2-4.8,4.8c-5.5-5.5-11.1-11.1-16.8-16.8
	C737.8,687,740.2,685.4,742.6,683.8z"/>
    <path class="st134" d="M504.8,534.8c2.4,0,4.8,0,7.2,0c0,4,0,7.9,0,12c-1.6-0.8-3.2-1.6-4.8-2.4c-4.1,2.3-8.1,4.7-12,7.2
	c-3.2,1.6-6.4,3.2-9.6,4.8c2.3-2.7,4.6-5.4,6.9-8.1c1.3-1.5,2.6-3,3.9-4.6C499.1,540.7,501.9,537.7,504.8,534.8z"/>
    <path class="st135" d="M656.1,515.6c9.5,0,19,0,28.8,0c0,0.8,0,1.6,0,2.4c-7.9,0.8-15.9,1.6-24,2.4c0,4,0,7.9,0,12
	c-3.2-2.4-6.3-4.8-9.6-7.2C652.9,522,654.5,518.9,656.1,515.6z"/>
    <path class="st136" d="M701.8,494c1.6,0,3.2,0,4.8,0c0,1.6,0,3.2,0,4.8c-1.6,0-3.2,0-4.8,0c0.8,2.4,1.6,4.8,2.4,7.2
	c-2.3,6.5-2.3,6.5-4.8,12c-5.5-0.8-11.1-1.6-16.8-2.4c1.4-0.5,2.9-1,4.4-1.5c7.2-4.5,9-10.1,12.5-17.7
	C700.2,495.6,701,494.8,701.8,494z"/>
    <path class="st137" d="M677.8,755.8c2.4,0.8,4.8,1.6,7.2,2.4c-3.3,2.7-3.3,2.7-6.6,5.4c-6.1,5.1-11.9,10.5-17.4,16.2
	c0.8-4.8,1.6-9.5,2.4-14.4c2.4,0,4.8,0,7.2,0c0-1.6,0-3.2,0-4.8c2.4,0,4.8,0,7.2,0C677.8,759.1,677.8,757.5,677.8,755.8z"/>
    <path class="st138" d="M252.5,580.5c2.4,0.8,4.8,1.6,7.2,2.4c-7.1,11.9-7.1,11.9-14.4,24c-1.6-3.2-3.2-6.3-4.8-9.6
	C244.5,591.7,248.5,586.2,252.5,580.5z"/>
    <path class="st139" d="M276.6,330.6c5.9,2.8,9.7,4.9,14.4,9.6c0.3,6.3,0.3,6.3,0,12c-1.6,0-3.2,0-4.8,0
	C276.6,336,276.6,336,276.6,330.6z"/>
    <path class="st140" d="M603.3,818.3c4,0,7.9,0,12,0c-2.4,0.8-4.8,1.6-7.2,2.4c-0.3,1.5-0.6,3-0.9,4.5c-1.5,5.1-1.5,5.1-7.2,9.5
	c-6.3,2.9-6.3,2.9-13.5,0.5c1.6,0,3.2,0,4.8,0c0-1.6,0-3.2,0-4.8c3.2-0.8,6.3-1.6,9.6-2.4C601.7,824.7,602.5,821.6,603.3,818.3z"/>
    <path class="st141" d="M247.7,717.4c1.6,2.4,3.2,4.8,4.8,7.2c-2.7,2.8-5.5,5.6-8.3,8.4c-1.5,1.6-3.1,3.1-4.6,4.7
	c-3.9,3.7-3.9,3.7-6.3,3.7c-0.8-5.6-0.8-5.6,0-12c5.9-4.1,5.9-4.1,12-7.2C246.1,720.6,246.9,719,247.7,717.4z"/>
    <path class="st142" d="M660.9,518c5,1.1,5,1.1,9.6,2.4c-0.8,2.4-1.6,4.8-2.4,7.2c1.6,1.6,3.2,3.2,4.8,4.8c-0.8,2.4-1.6,4.8-2.4,7.2
	c0-1.6,0-3.2,0-4.8c-3.2-0.8-6.3-1.6-9.6-2.4c-0.9-4-1.7-8-2.4-12C659.3,519.6,660.1,518.8,660.9,518z"/>
    <path class="st143" d="M447.1,419.5c4.7,1.7,4.7,1.7,9.6,4.8c1.8,6.3,1.8,6.3,2.4,12c-4.8-1.6-9.5-3.2-14.4-4.8
	C445.5,427.6,446.3,423.6,447.1,419.5z"/>
    <path class="st144" d="M461.6,136c1.6,2.4,3.2,4.8,4.8,7.2c-10.6,9.6-10.6,9.6-14.4,12c-2.4-0.8-4.8-1.6-7.2-2.4
	C450.3,147.3,455.8,141.8,461.6,136z"/>
    <path class="st145" d="M574.5,856.7c3.2,0.8,6.3,1.6,9.6,2.4c-13.8,12-13.8,12-19.2,12c0,1.6,0,3.2,0,4.8c-2.4-0.8-4.8-1.6-7.2-2.4
	c3.2-1.6,6.3-3.2,9.6-4.8c0-2.4,0-4.8,0-7.2c2.4,0,4.8,0,7.2,0C574.5,860,574.5,858.4,574.5,856.7z"/>
    <path class="st146" d="M295.8,544.4c0.8,3.2,1.6,6.3,2.4,9.6c-1.6,0-3.2,0-4.8,0c0,1.6,0,3.2,0,4.8c-8.3,7.2-8.3,7.2-14.4,7.2
	C282.7,556.9,288.7,551.2,295.8,544.4z"/>
    <path class="st147" d="M1014.1,503.6c2.4,1.6,4.8,3.2,7.2,4.8c-1,6.9-1.9,9.2-7.4,13.8c-2.3,1.5-2.3,1.5-4.7,3
	C1008.8,516.5,1009.6,511.1,1014.1,503.6z"/>
    <path class="st148" d="M781.1,395.5c1.6,0.8,3.2,1.6,4.8,2.4c-0.7,3.6-1.4,7.1-2.1,10.7c-0.4,2-0.8,4-1.2,6c-0.5,1.6-1,3.3-1.5,5
	c-2.4,1.2-2.4,1.2-4.8,2.4c-2.8-8.5-2.6-11.5,1.1-20C778.5,399.8,779.8,397.7,781.1,395.5z"/>
    <path class="st149" d="M235.7,292.2c1.6,0,3.2,0,4.8,0c3.2,6.3,6.3,12.7,9.6,19.2c-2.4-0.8-4.8-1.6-7.2-2.4c0-1.6,0-3.2,0-4.8
	c-1.6,0-3.2,0-4.8,0c-1.6,1.6-3.2,3.2-4.8,4.8c-0.1-4.8-0.1-9.6,0-14.4C234.1,293.8,234.9,293,235.7,292.2z"/>
    <path class="st150" d="M641.7,794.3c1.6,0.8,3.2,1.6,4.8,2.4c0,2.4,0,4.8,0,7.2c-1.3,0.2-2.7,0.4-4.1,0.6
	c-7.2,2.3-11.9,6.5-17.6,11.4c0-4,0-7.9,0-12c3.2,0,6.3,0,9.6,0c0-1.6,0-3.2,0-4.8c2.4,0,4.8,0,7.2,0
	C641.7,797.5,641.7,795.9,641.7,794.3z"/>
    <path class="st151" d="M233.3,688.6c0.8,0,1.6,0,2.4,0c0.8,7.1,1.6,14.3,2.4,21.6c0.8,0,1.6,0,2.4,0c0,4,0,7.9,0,12
	c-2.4,0.8-4.8,1.6-7.2,2.4C233.3,712.7,233.3,700.8,233.3,688.6z"/>
    <path class="st152" d="M699.4,568.5c4.8,0,9.5,0,14.4,0c0.8,4,1.6,7.9,2.4,12c-2.4,0-4.8,0-7.2,0
	C703.7,574.5,703.7,574.5,699.4,568.5z"/>
    <path class="st153" d="M500,544.4c1.6,0.8,3.2,1.6,4.8,2.4c-7.1,7.1-14.3,14.3-21.6,21.6c-0.8-3.2-1.6-6.3-2.4-9.6
	c2.3-1.5,4.6-3,6.9-4.5C495.1,549.7,495.1,549.7,500,544.4z"/>
    <path class="st154" d="M723.4,539.6c6.9,0.6,6.9,0.6,14.4,2.4c3.5,4.5,3.5,4.5,4.8,9.6c-0.8,2.4-1.6,4.8-2.4,7.2
	c-2.8-2.7-5.6-5.5-8.4-8.3c-1.6-1.5-3.1-3.1-4.7-4.6C723.4,542,723.4,542,723.4,539.6z"/>
    <path class="st155" d="M293.4,542c-0.8,7.8-2.5,9.7-8.6,15c-1.9,1.4-3.9,2.8-5.9,4.2c-0.8-2.4-1.6-4.8-2.4-7.2
	C288,542,288,542,293.4,542z"/>
    <path class="st156" d="M531.2,470c1.6,2.4,3.2,4.8,4.8,7.2c-3.9,4.1-7.9,8.1-12,12c-1.6,0-3.2,0-4.8,0
	C520.5,480.1,524.5,476,531.2,470z"/>
    <path class="st157" d="M773.9,297c1.7,4.4,1.7,4.4,2.4,9.6c-4,5.9-6.7,7.1-13.7,8.9c-2.7,0.4-2.7,0.4-5.6,0.8
	c2.4-2.8,4.7-5.5,7.1-8.3c1.3-1.5,2.6-3.1,4-4.6C769.9,301.1,771.8,299,773.9,297z"/>
    <path class="st158" d="M670.6,698.2c1.6,0,3.2,0,4.8,0c9.6,10.5,9.6,10.5,9.6,19.2c-3.2-0.8-6.3-1.6-9.6-2.4
	C673.8,709.4,672.2,703.9,670.6,698.2z"/>
    <path class="st159" d="M353.4,546.8c-3.6,9.1-9,13.5-16.8,19.2c-1.6-1.6-3.2-3.2-4.8-4.8c2.7-2.4,5.4-4.8,8.1-7.2
	c2.3-2,2.3-2,4.6-4.1C348.6,546.8,348.6,546.8,353.4,546.8z"/>
    <path class="st160" d="M728.2,400.3c3.5,10.9,0.6,18.1-2.4,28.8c-2.4,0-4.8,0-7.2,0c1.1-3.9,2.3-7.8,3.5-11.7
	c0.6-2.2,1.3-4.3,1.9-6.6C725.8,405.1,725.8,405.1,728.2,400.3z"/>
    <path class="st161" d="M408.7,381.1c2.4,0.8,4.8,1.6,7.2,2.4c0,4,0,7.9,0,12c-3.2-0.8-6.3-1.6-9.6-2.4
	C406.3,383.5,406.3,383.5,408.7,381.1z"/>
    <path class="st162" d="M615.3,376.3c2.4,0.8,4.8,1.6,7.2,2.4c-0.8,1.6-1.6,3.2-2.4,4.8c-1.6,0-3.2,0-4.8,0c0.8,3.2,1.6,6.3,2.4,9.6
	c-2.4,0.8-4.8,1.6-7.2,2.4c-0.8-4.8-1.6-9.5-2.4-14.4C610.5,379.5,612.8,377.9,615.3,376.3z"/>
    <path class="st163" d="M624.9,373.9c2.4,0,4.8,0,7.2,0c-3.1,6.9-6.2,12-12,16.8c-1.6,0-3.2,0-4.8,0c0-2.4,0-4.8,0-7.2
	c1.6,0,3.2,0,4.8,0C621.7,380.3,623.3,377.1,624.9,373.9z"/>
    <path class="st164" d="M742.6,335.4c0.8,2.4,1.6,4.8,2.4,7.2c-3.5,6.5-3.5,6.5-7.2,12c-1.6-0.8-3.2-1.6-4.8-2.4c0-4,0-7.9,0-12
	C736.2,338.6,739.4,337.1,742.6,335.4z"/>
    <path class="st165" d="M235.7,301.8c7.2,2.4,7.2,2.4,12,9.6c-0.9,8.9-0.9,8.9-2.4,16.8c-4.8-4.8-4.8-4.8-5.1-12.3
	c0.1-2.3,0.2-4.6,0.3-6.9c-1.6,0-3.2,0-4.8,0C235.7,306.6,235.7,304.2,235.7,301.8z"/>
    <path class="st166" d="M552.8,133.6c6.9,1.4,9.3,2.1,14.4,7.2c-0.9,5.1-0.9,5.1-2.4,9.6c-4.1-3.9-8.1-7.9-12-12
	C552.8,136.9,552.8,135.3,552.8,133.6z"/>
    <path class="st167" d="M367.9,498.8c2.8,2.2,5.6,4.5,8.4,6.8c1.6,1.3,3.1,2.5,4.7,3.8c3.7,3.9,3.7,3.9,3.7,11.1
	c-4.8,0-4.8,0-9.8-4.1C369.8,510.3,368.7,506.5,367.9,498.8z"/>
    <path class="st168" d="M653.7,498.8c2.4,0.8,4.8,1.6,7.2,2.4c-2.3,2.8-4.6,5.6-6.9,8.4c-1.3,1.6-2.6,3.1-3.9,4.7
	c-1.2,1.2-2.4,2.4-3.6,3.7c-1.6,0-3.2,0-4.8,0C643,508.9,647,504.9,653.7,498.8z"/>
    <path class="st169" d="M96.4,414.7c2.4,0.8,4.8,1.6,7.2,2.4c-3.9,4.9-7.9,9.7-12,14.4c-1.6,0-3.2,0-4.8,0
	C88.1,423.7,90.4,419.9,96.4,414.7z"/>
    <path class="st170"
          d="M584.1,167.3c11.4,1.8,11.4,1.8,16.8,7.2c-0.8,3.2-1.6,6.3-2.4,9.6C593.7,178.5,589,173,584.1,167.3z"/>
    <path class="st171" d="M286.2,671.8c1.6,0,3.2,0,4.8,0c0,3.2,0,6.3,0,9.6c-1.5,0.7-3.1,1.4-4.7,2.1c-5.3,2.3-5.3,2.3-7.4,7.5
	c-1.6,0-3.2,0-4.8,0c-0.8,1.6-1.6,3.2-2.4,4.8c0-2.4,0-4.8,0-7.2c1.6,0,3.2,0,4.8,0c0.7-1.4,1.4-2.9,2.1-4.4
	C281.4,679,281.4,679,286.2,671.8z"/>
    <path class="st172" d="M221.3,289.8c2.4,0.8,4.8,1.6,7.2,2.4c-4.8,4.8-9.5,9.5-14.4,14.4c-2.4-0.8-4.8-1.6-7.2-2.4
	C211.7,299.4,216.4,294.7,221.3,289.8z"/>
    <path class="st173"
          d="M442.3,155.3c0,9.6-4.1,13.9-9.6,21.6c-2.4-1.6-4.8-3.2-7.2-4.8C431.1,166.5,436.6,161,442.3,155.3z"/>
    <path class="st174" d="M699.4,727c2.4,1.6,4.8,3.2,7.2,4.8c-3.3,8.1-7.2,12-14.4,16.8c0.8-3.2,1.6-6.3,2.4-9.6c1.6,0,3.2,0,4.8,0
	C699.4,735.1,699.4,731.1,699.4,727z"/>
    <path class="st175" d="M521.6,542c9.3,4.2,9.3,4.2,12,9.6c-2.4,3.6-2.4,3.6-4.8,7.2c-3.6-3-3.6-3-7.2-7.2
	C521.6,548.5,521.6,545.3,521.6,542z"/>
    <path class="st176"
          d="M697,301.8c3.2,0.8,6.3,1.6,9.6,2.4c-8.3,7.1-8.3,7.1-16.8,14.4C691.6,307.2,691.6,307.2,697,301.8z"/>
    <path class="st177" d="M790.7,282.6c2.4,0.8,4.8,1.6,7.2,2.4c-11.4,11.7-11.4,11.7-16.8,14.4c-1.6-1.6-3.2-3.2-4.8-4.8
	C786.8,285,786.8,285,790.7,282.6z"/>
    <path class="st178" d="M665.7,251.3c4.9,3.9,9.7,7.9,14.4,12c0,0.8,0,1.6,0,2.4c-4,0.1-8,0.1-12,0c-2.4-2.4-2.4-2.4-2.6-8.6
	C665.6,255.3,665.7,253.3,665.7,251.3z"/>
    <path class="st179" d="M653.7,770.2c1.6,0.8,3.2,1.6,4.8,2.4c-4.8,5.5-9.5,11.1-14.4,16.8c-1.6-0.8-3.2-1.6-4.8-2.4
	C643.7,779.2,646.1,775.3,653.7,770.2z"/>
    <path class="st180" d="M793.1,722.2c0.8,1.6,1.6,3.2,2.4,4.8c1.6,0.8,3.2,1.6,4.8,2.4c-0.8,4.7-0.8,4.7-2.4,9.6
	c-2.4,0.8-4.8,1.6-7.2,2.4C791.5,735.1,792.3,728.7,793.1,722.2z"/>
    <path class="st181" d="M697,515.6c-0.8,2.4-1.6,4.8-2.4,7.2c-6.3,0-12.7,0-19.2,0c-0.8-1.6-1.6-3.2-2.4-4.8
	C681.1,516.1,688.6,515.4,697,515.6z"/>
    <path class="st182" d="M298.2,433.9c8.4,7.3,11.5,13.4,14.4,24C304.1,450.3,299.2,445.5,298.2,433.9z"/>
    <path class="st183" d="M295.8,412.3c3.6,3,3.6,3,7.2,7.2c0.5,8.9,0.5,8.9,0,16.8c-1.6-0.8-3.2-1.6-4.8-2.4c-1-5-1-5-1.5-11
	c-0.2-2-0.4-4-0.5-6C296,415.4,295.9,413.9,295.8,412.3z"/>
    <path class="st184" d="M348.6,325.8c3.2,0,6.3,0,9.6,0c0,4,0,7.9,0,12c-3.2-0.8-6.3-1.6-9.6-2.4
	C348.6,332.3,348.6,329.1,348.6,325.8z"/>
    <path class="st185" d="M677.8,311.4c-2.4,7.2-2.4,7.2-6.9,9.6c-1.7,0.8-3.4,1.6-5.1,2.4c-4.1,3.7-4.1,3.7-7.2,7.2
	c0.8-4.7,0.8-4.7,2.4-9.6c2.4-0.8,4.8-1.6,7.2-2.4c0-1.6,0-3.2,0-4.8C673,311.4,673,311.4,677.8,311.4z"/>
    <path class="st186" d="M536,890.4c0.8,3.2,1.6,6.3,2.4,9.6c-4.8,2.4-9.5,4.8-14.4,7.2c0.8-4,1.6-7.9,2.4-12c3.2,0,6.3,0,9.6,0
	C536,893.6,536,892,536,890.4z"/>
    <path class="st187" d="M629.7,654.9c4.8,1.6,9.5,3.2,14.4,4.8c0,3.2,0,6.3,0,9.6C635.2,666.4,634.1,663,629.7,654.9z"/>
    <path class="st188" d="M329.4,563.6c2.4,0.8,4.8,1.6,7.2,2.4c-4,4-7.9,7.9-12,12c-2.4-0.8-4.8-1.6-7.2-2.4
	C321.4,571.7,325.3,567.7,329.4,563.6z"/>
    <path class="st189" d="M303,424.3c5.8,6.9,10.7,13.4,14.4,21.6c-2.4,0-4.8,0-7.2,0c0-2.4,0-4.8,0-7.2c-2.4-0.8-4.8-1.6-7.2-2.4
	C303,432.4,303,428.4,303,424.3z"/>
    <path class="st190" d="M721,426.7c0.8,2.4,1.6,4.8,2.4,7.2c-3.5,5.3-3.5,5.3-7.2,9.6c-2.4-0.8-4.8-1.6-7.2-2.4
	C715.6,429.4,715.6,429.4,721,426.7z"/>
    <path class="st191" d="M596.1,378.7c2.4,0.8,4.8,1.6,7.2,2.4c0,2.4,0,4.8,0,7.2c-7.2,5.3-7.2,5.3-14.4,9.6
	C593.4,384.1,593.4,384.1,596.1,378.7z"/>
    <path class="st192" d="M689.8,294.6c2.4,0.8,4.8,1.6,7.2,2.4c-4,4-7.9,7.9-12,12c-2.4-0.8-4.8-1.6-7.2-2.4c1.5-0.6,3.1-1.3,4.7-2
	C688.2,302.1,688.2,302.1,689.8,294.6z"/>
    <path class="st193" d="M509.6,88c8.1,3.3,12,7.2,16.8,14.4c-7.2,0-7.2,0-14.4-4.8C510.3,92.5,510.3,92.5,509.6,88z"/>
    <path class="st194" d="M512,90.4c-0.8,4-1.6,7.9-2.4,12c-4.8,0-9.6,0-14.4,0C506.6,90.4,506.6,90.4,512,90.4z"/>
    <path class="st195" d="M781.1,707.8c3.2,0.8,6.3,1.6,9.6,2.4c0,4,0,7.9,0,12c-2.4-0.8-4.8-1.6-7.2-2.4
	C782.7,715.8,781.9,711.9,781.1,707.8z"/>
    <path class="st196" d="M252.5,700.6c0,8.5-1.7,10.7-7.2,16.8c-1.6,0-3.2,0-4.8,0c0.6-5.7,0.6-5.7,2.4-12
	C247.9,702.2,247.9,702.2,252.5,700.6z"/>
    <path class="st197" d="M735.4,669.4c2.4,1.2,2.4,1.2,4.8,2.4c1,5.6,1.8,11.2,2.4,16.8c-2.4-0.8-4.8-1.6-7.2-2.4
	C735.4,680.6,735.4,675.1,735.4,669.4z"/>
    <path class="st198" d="M293.4,616.5c1.6,0,3.2,0,4.8,0c-0.8,5.5-1.6,11.1-2.4,16.8c-2.4-0.8-4.8-1.6-7.2-2.4
	C290.2,626.2,291.8,621.4,293.4,616.5z"/>
    <path class="st199" d="M757,566.1c4.8,2.4,4.8,2.4,9.6,4.8c0,4,0,7.9,0,12c-4.8-4.4-4.8-4.4-9.6-9.6C757,570.9,757,568.5,757,566.1z
	"/>
    <path class="st200" d="M997.3,527.6c2.4,1.6,4.8,3.2,7.2,4.8c-7.1,5.9-7.1,5.9-14.4,12c0-9.6,0-9.6,3.6-13.8
	C994.9,529.6,996,528.6,997.3,527.6z"/>
</svg>
